<?xml version="1.0" standalone="no"?>
<!DOCTYPE svg PUBLIC "-//W3C//DTD SVG 1.1//EN" "http://www.w3.org/Graphics/SVG/1.1/DTD/svg11.dtd" >
<svg xmlns="http://www.w3.org/2000/svg" xmlns:xlink="http://www.w3.org/1999/xlink" version="1.1">
<metadata>
Created by FontForge 20161116 at Sat Dec 22 15:02:46 2007
 By Jimmy Wärting
Copyright (c) 2005 The Hoefler Type Foundry, Inc., dba Hoefler &#38; Frere-Jones. All Rights Reserved.
</metadata>
<defs>
<font id="GothamProNarrow-Medium" horiz-adv-x="500" >
  <font-face 
    font-family="Gotham Pro Narrow"
    font-weight="500"
    font-stretch="normal"
    units-per-em="1000"
    panose-1="2 0 6 6 3 0 0 2 0 4"
    ascent="800"
    descent="-200"
    x-height="530"
    cap-height="700"
    bbox="-54 -159.268 1059 915"
    underline-thickness="20"
    underline-position="-133"
    stemh="104"
    stemv="114"
    unicode-range="U+0020-FB04"
  />
<missing-glyph 
d="M0 0v700h500v-700h-500zM81 49h339l-170 255zM49 96l171 254l-171 254v-508zM450 96v508l-171 -254zM250 395l170 255h-339z" />
    <glyph glyph-name="fi" unicode="fi" horiz-adv-x="587" 
d="M519 607h-120v111h120v-111zM319 433h-117v-433h-113v433h-58v95h58v40c0 107 55 159 150 159c35 0 60 -4 81 -11v-95c-18 6 -35 9 -55 9c-42 0 -64 -23 -64 -73v-30h118v-94zM516 0h-114v530h114v-530z" />
    <glyph glyph-name="fl" unicode="fl" horiz-adv-x="587" 
d="M319 433h-117v-433h-113v433h-58v95h58v40c0 107 55 159 150 159c35 0 60 -4 81 -11v-95c-18 6 -35 9 -55 9c-42 0 -64 -23 -64 -73v-30h118v-94zM516 0h-114v722h114v-722z" />
    <glyph glyph-name="ffi" unicode="ffi" horiz-adv-x="916" 
d="M848 607h-120v111h120v-111zM531 526h118v-93h-117v-433h-112v433h-59v94h59v41c0 107 54 159 150 159c34 0 59 -4 80 -11v-96c-17 6 -35 10 -55 10c-41 0 -64 -24 -64 -73v-31zM201 526h117v-93h-116v-433h-113v433h-59v94h59v41c0 107 55 159 150 159
c35 0 59 -4 80 -11v-96c-17 6 -35 10 -54 10c-42 0 -64 -24 -64 -73v-31zM845 0h-113v530h113v-530z" />
    <glyph glyph-name="ffl" unicode="ffl" horiz-adv-x="916" 
d="M531 526h118v-93h-117v-433h-112v433h-59v94h59v41c0 107 54 159 150 159c34 0 59 -4 80 -11v-96c-17 6 -35 10 -55 10c-41 0 -64 -24 -64 -73v-31zM201 526h117v-93h-116v-433h-113v433h-59v94h59v41c0 107 55 159 150 159c35 0 59 -4 80 -11v-96c-17 6 -35 10 -54 10
c-42 0 -64 -24 -64 -73v-31zM845 0h-113v722h113v-722z" />
    <glyph glyph-name=".notdef" 
d="M0 0v700h500v-700h-500zM81 49h339l-170 255zM49 96l171 254l-171 254v-508zM450 96v508l-171 -254zM250 395l170 255h-339z" />
    <glyph glyph-name="space" unicode=" " horiz-adv-x="257" 
 />
    <glyph glyph-name="exclam" unicode="!" horiz-adv-x="277" 
d="M206 665l-37 -448h-61l-36 448v35h134v-35zM202 0h-127v132h127v-132z" />
    <glyph glyph-name="quotedbl" unicode="&#x22;" horiz-adv-x="435" 
d="M395 694l-87 -292h-54l15 298h126v-6zM198 694l-87 -292h-55l17 298h125v-6z" />
    <glyph glyph-name="numbersign" unicode="#" horiz-adv-x="605" 
d="M571 442h-94l-25 -180h89v-98h-104l-23 -164h-94l23 164h-137l-24 -164h-94l24 164h-79v98h93l26 180h-88v98h103l23 160h94l-23 -160h138l22 160h94l-23 -160h79v-98zM384 442h-138l-25 -180h137z" />
    <glyph glyph-name="dollar" unicode="$" horiz-adv-x="554" 
d="M322 -100h-80v100c-74 7 -139 34 -197 78l45 94c53 -40 103 -66 161 -73v205c-127 49 -190 102 -190 210v1c0 102 74 173 181 186v61h80v-61c62 -7 112 -29 160 -62l-40 -96c-44 30 -86 50 -129 57v-195c147 -61 194 -115 194 -216v-1c0 -103 -77 -174 -185 -188v-100z
M401 184c0 43 -19 69 -88 98v-184c59 8 88 39 88 85v1zM168 522c0 -43 18 -67 83 -94v173c-55 -7 -83 -37 -83 -79z" />
    <glyph glyph-name="percent" unicode="%" horiz-adv-x="760" 
d="M339 525c0 -101 -61 -176 -149 -176s-148 75 -148 174v8c0 100 60 176 149 176c88 0 148 -76 148 -175v-7zM651 700l-454 -700h-88l454 700h88zM718 169c0 -100 -61 -176 -150 -176c-87 0 -147 75 -147 175v7c0 101 61 176 149 176s148 -75 148 -174v-8zM256 524v6
c0 62 -27 103 -66 103c-41 0 -65 -40 -65 -101v-7c0 -62 28 -102 66 -102c40 0 65 40 65 101zM635 168v7c0 62 -28 102 -67 102s-64 -40 -64 -101v-6c0 -62 27 -103 66 -103c40 0 65 40 65 101z" />
    <glyph glyph-name="ampersand" unicode="&#x26;" horiz-adv-x="616" 
d="M593 46l-85 -59l-77 89c-52 -53 -112 -86 -190 -86c-118 0 -209 78 -209 195v3c0 88 50 154 138 201c-40 57 -59 101 -59 152v3c0 89 69 167 182 167c101 0 169 -71 169 -161v-3c0 -88 -54 -144 -139 -185l108 -129c21 37 40 79 59 128l88 -38c-23 -63 -50 -119 -81 -167
zM360 541v4c0 44 -29 74 -70 74c-44 0 -74 -33 -74 -77v-4c0 -34 14 -63 50 -110c63 30 94 65 94 113zM369 146l-139 169c-57 -32 -82 -77 -82 -122v-3c0 -60 44 -103 105 -103c44 0 82 23 116 59z" />
    <glyph glyph-name="quotesingle" unicode="'" horiz-adv-x="238" 
d="M199 694l-87 -292h-56l17 298h126v-6z" />
    <glyph glyph-name="parenleft" unicode="(" horiz-adv-x="393" 
d="M352 -63l-37 -77c-171 86 -258 233 -258 428c0 193 87 340 258 427l37 -78c-124 -82 -183 -193 -183 -349c0 -157 59 -267 183 -351z" />
    <glyph glyph-name="parenright" unicode=")" horiz-adv-x="393" 
d="M336 288c0 -195 -86 -342 -258 -428l-37 77c125 84 183 194 183 351c0 156 -58 267 -183 349l37 78c172 -87 258 -234 258 -427z" />
    <glyph glyph-name="asterisk" unicode="*" horiz-adv-x="390" 
d="M343 498l-35 -60l-93 71l15 -119h-70l15 119l-93 -71l-35 60l107 47l-107 47l35 61l93 -71l-15 119h70l-15 -119l93 71l35 -61l-107 -47z" />
    <glyph glyph-name="plus" unicode="+" horiz-adv-x="577" 
d="M519 300h-177v-182h-108v182h-177v104h177v182h108v-182h177v-104z" />
    <glyph glyph-name="comma" unicode="," horiz-adv-x="249" 
d="M188 21c0 -106 -50 -155 -146 -166l-11 49c61 12 85 48 81 96h-52v132h128v-111z" />
    <glyph glyph-name="hyphen" unicode="-" horiz-adv-x="381" 
d="M329 250h-278v112h278v-112z" />
    <glyph glyph-name="period" unicode="." horiz-adv-x="249" 
d="M188 0h-128v132h128v-132z" />
    <glyph glyph-name="slash" unicode="/" horiz-adv-x="454" 
d="M459 789l-381 -908h-97l381 908h97z" />
    <glyph glyph-name="zero" unicode="0" horiz-adv-x="624" 
d="M574 345c0 -213 -103 -356 -263 -356s-261 142 -261 355v11c0 213 102 356 262 356s262 -142 262 -355v-11zM456 344v10c0 158 -58 253 -145 253s-143 -93 -143 -251v-10c0 -158 57 -253 144 -253c88 0 144 94 144 251z" />
    <glyph glyph-name="one" unicode="1" horiz-adv-x="350" 
d="M267 0h-115v584l-110 -33l-18 100l161 53h82v-704z" />
    <glyph glyph-name="two" unicode="2" horiz-adv-x="527" 
d="M479 0h-437v92l208 231c77 81 106 125 106 181c0 61 -43 99 -100 99c-56 0 -96 -28 -142 -83l-61 78c56 70 114 110 214 110c125 0 207 -76 207 -192v-3c0 -94 -45 -150 -144 -247l-135 -161h284v-105z" />
    <glyph glyph-name="three" unicode="3" horiz-adv-x="530" 
d="M479 210c0 -130 -93 -220 -226 -220c-98 0 -168 38 -217 91l60 84c43 -44 90 -70 155 -70c64 0 114 43 114 110v4c0 73 -58 110 -152 112h-39l-15 73l169 202h-263v104h406v-90l-174 -203c96 -16 182 -68 182 -192v-5z" />
    <glyph glyph-name="four" unicode="4" horiz-adv-x="590" 
d="M549 151h-87v-151h-110v151h-306l-15 85l329 468h102v-457h87v-96zM352 247v285l-195 -285h195z" />
    <glyph glyph-name="five" unicode="5" horiz-adv-x="536" 
d="M487 225c0 -143 -95 -235 -237 -235c-86 0 -154 32 -206 80l53 91c46 -40 94 -64 150 -64c76 0 126 49 126 125v4c0 76 -51 117 -125 117c-41 0 -76 -11 -106 -26l-67 45l19 338h364v-105h-268l-10 -166c27 10 54 16 93 16c118 0 214 -67 214 -216v-4z" />
    <glyph glyph-name="six" unicode="6" horiz-adv-x="570" 
d="M522 227c0 -142 -98 -238 -229 -238c-70 0 -122 22 -161 61c-52 52 -81 127 -81 274v6c0 237 95 380 267 380c72 0 124 -22 173 -59l-47 -96c-39 31 -76 50 -127 50c-91 0 -146 -88 -149 -222c33 36 75 64 145 64c114 0 209 -72 209 -216v-4zM409 222v4
c0 77 -49 124 -118 124c-36 0 -66 -12 -87 -34c-21 -21 -33 -52 -33 -90v-5c0 -80 48 -131 121 -131c72 0 117 53 117 132z" />
    <glyph glyph-name="seven" unicode="7" horiz-adv-x="521" 
d="M477 614l-261 -614h-125l260 595h-297v105h423v-86z" />
    <glyph glyph-name="eight" unicode="8" horiz-adv-x="550" 
d="M508 192c0 -125 -99 -202 -234 -202c-133 0 -233 79 -233 200v4c0 85 45 140 113 171c-54 31 -93 80 -93 155v4c0 108 92 186 213 186c122 0 214 -78 214 -186v-4c0 -75 -38 -124 -93 -155c67 -32 113 -85 113 -169v-4zM378 510v3c0 60 -41 102 -104 102
c-61 0 -103 -41 -103 -101v-3c0 -63 43 -108 103 -108c61 0 104 43 104 107zM395 197v4c0 69 -52 110 -121 110c-68 0 -120 -41 -120 -110v-4c0 -66 45 -111 120 -111c76 0 121 45 121 111z" />
    <glyph glyph-name="nine" unicode="9" horiz-adv-x="570" 
d="M521 370c0 -241 -100 -380 -268 -380c-74 0 -132 25 -183 63l47 96c44 -35 86 -54 136 -54c91 0 147 87 149 217c-32 -38 -76 -66 -143 -66c-118 0 -210 75 -210 219v5c0 142 96 241 229 241c71 0 121 -21 161 -61c52 -52 82 -128 82 -274v-6zM400 471v5
c0 82 -48 134 -121 134s-116 -54 -116 -135v-4c0 -80 48 -128 117 -128c35 0 64 13 85 33c22 22 35 54 35 95z" />
    <glyph glyph-name="colon" unicode=":" horiz-adv-x="259" 
d="M193 397h-128v133h128v-133zM193 0h-128v132h128v-132z" />
    <glyph glyph-name="semicolon" unicode=";" horiz-adv-x="259" 
d="M193 397h-128v133h128v-133zM193 21c0 -106 -50 -155 -146 -166l-11 49c61 12 85 48 81 96h-52v132h128v-111z" />
    <glyph glyph-name="less" unicode="&#x3c;" horiz-adv-x="556" 
d="M479 83l-421 215v108l421 215v-115l-311 -153l311 -154v-116z" />
    <glyph glyph-name="equal" unicode="=" horiz-adv-x="590" 
d="M514 419h-438v107h438v-107zM514 178h-438v107h438v-107z" />
    <glyph glyph-name="greater" unicode="&#x3e;" horiz-adv-x="556" 
d="M497 298l-420 -215v115l311 153l-311 154v116l420 -215v-108z" />
    <glyph glyph-name="question" unicode="?" horiz-adv-x="474" 
d="M438 509c0 -118 -79 -173 -177 -196l-10 -96h-76l-16 166l4 5c108 10 161 52 161 118v2c0 56 -42 94 -107 94c-55 0 -99 -22 -141 -62l-52 82c50 51 111 86 200 86c128 0 214 -78 214 -195v-4zM277 0h-128v132h128v-132z" />
    <glyph glyph-name="at" unicode="@" horiz-adv-x="878" 
d="M830 342c0 -168 -81 -274 -184 -274c-73 0 -114 34 -131 76c-33 -42 -78 -75 -140 -75c-84 0 -152 64 -152 168c0 148 99 269 204 269c64 0 100 -34 121 -74l12 62l92 -16l-45 -252c-4 -18 -5 -36 -5 -51c0 -39 23 -63 64 -63c67 0 124 91 124 231
c0 172 -141 331 -339 331c-213 0 -365 -197 -365 -419c-1 -216 147 -372 354 -372c86 0 150 20 216 59l19 -30c-70 -42 -142 -66 -236 -66c-224 0 -392 172 -392 410c0 243 172 455 405 455c217 0 378 -173 378 -369zM527 328c0 57 -35 95 -85 95c-51 0 -98 -46 -114 -114
c-5 -23 -9 -46 -9 -66c0 -60 35 -94 85 -94c51 0 100 51 116 120c5 21 7 41 7 59z" />
    <glyph glyph-name="A" unicode="A" horiz-adv-x="674" 
d="M25 0l256 704h112l256 -704h-120l-59 165h-270l-59 -165h-116zM235 268h199l-99 281z" />
    <glyph glyph-name="B" unicode="B" horiz-adv-x="623" 
d="M77 0v700h249c133 0 225 -65 225 -181c0 -87 -49 -132 -103 -157c77 -27 133 -74 133 -167c0 -127 -100 -195 -249 -195h-255zM190 103h146c80 0 130 35 130 100c0 64 -47 101 -136 101h-140v-201zM190 402h121c76 0 125 33 125 99c0 62 -43 96 -118 96h-128v-195z" />
    <glyph glyph-name="C" unicode="C" horiz-adv-x="617" 
d="M356 -10c-174 0 -306 143 -306 355v9c0 211 132 356 312 356c101 0 161 -33 214 -81l-55 -94c-46 40 -94 67 -157 67c-111 0 -193 -96 -193 -247v-9c0 -152 81 -248 194 -248c66 0 111 26 161 70l55 -85c-58 -57 -123 -93 -225 -93z" />
    <glyph glyph-name="D" unicode="D" horiz-adv-x="672" 
d="M77 0v700h213c198 0 332 -140 332 -345v-9c0 -205 -134 -346 -332 -346h-213zM192 105h101c124 0 209 89 209 240v9c0 150 -86 241 -209 241h-101v-490z" />
    <glyph glyph-name="E" unicode="E" horiz-adv-x="568" 
d="M77 0v700h440v-105h-325v-190h288v-105h-288v-195h329v-105h-444z" />
    <glyph glyph-name="F" unicode="F" horiz-adv-x="553" 
d="M77 0v700h437v-107h-322v-197h286v-106h-286v-290h-115z" />
    <glyph glyph-name="G" unicode="G" horiz-adv-x="670" 
d="M370 -10c-188 0 -320 140 -320 355v9c0 205 134 356 320 356c97 0 158 -26 216 -72l-54 -97c-47 38 -93 61 -164 61c-113 0 -197 -102 -197 -246v-10c0 -158 84 -250 203 -250c49 0 91 14 125 37v154h-148v102h257v-314c-60 -48 -139 -85 -238 -85z" />
    <glyph glyph-name="H" unicode="H" horiz-adv-x="659" 
d="M77 0v700h115v-294h275v294h115v-700h-115v298h-275v-298h-115z" />
    <glyph glyph-name="I" unicode="I" horiz-adv-x="281" 
d="M82 0v700h116v-700h-116z" />
    <glyph glyph-name="J" unicode="J" horiz-adv-x="475" 
d="M198 -9c-84 0 -139 36 -177 81l56 89c33 -40 69 -61 115 -61c58 0 97 38 97 118v482h119v-486c0 -150 -87 -223 -210 -223z" />
    <glyph glyph-name="K" unicode="K" horiz-adv-x="627" 
d="M77 0v700h115v-343l270 343h140l-243 -301l254 -399h-138l-196 306l-87 -104v-202h-115z" />
    <glyph glyph-name="L" unicode="L" horiz-adv-x="522" 
d="M77 0v700h115v-593h300v-107h-415z" />
    <glyph glyph-name="M" unicode="M" horiz-adv-x="753" 
d="M77 0v700h121l178 -321l179 321h122v-700h-114v495l-186 -324h-3l-185 322v-493h-112z" />
    <glyph glyph-name="N" unicode="N" horiz-adv-x="681" 
d="M77 0v700h107l307 -466v466h114v-700h-99l-316 481v-481h-113z" />
    <glyph glyph-name="O" unicode="O" horiz-adv-x="720" 
d="M359 -11c-182 0 -309 148 -309 355v10c0 208 128 357 311 357c181 0 308 -148 308 -355v-10c0 -208 -128 -357 -310 -357zM361 96c111 0 189 97 189 248v10c0 152 -80 250 -191 250c-110 0 -188 -97 -188 -248v-10c0 -152 79 -250 190 -250z" />
    <glyph glyph-name="P" unicode="P" horiz-adv-x="582" 
d="M77 0v700h223c153 0 251 -88 251 -234c0 -156 -113 -239 -259 -239h-100v-227h-115zM192 332h103c86 0 140 51 140 131c0 88 -55 132 -139 132h-104v-263z" />
    <glyph glyph-name="Q" unicode="Q" horiz-adv-x="721" 
d="M611 -20l-73 69c-49 -39 -110 -60 -179 -60c-182 0 -309 148 -309 355v10c0 208 128 357 311 357c181 0 308 -148 308 -355v-10c0 -86 -22 -163 -61 -222l74 -66zM363 95c35 0 68 10 95 28l-104 92l71 78l95 -89c19 37 30 85 30 140v10c0 152 -80 250 -191 250
c-110 0 -188 -97 -188 -248v-10c0 -155 79 -251 192 -251z" />
    <glyph glyph-name="R" unicode="R" horiz-adv-x="625" 
d="M77 0v700h251c150 0 246 -80 246 -223c0 -108 -60 -176 -145 -206l164 -271h-134l-148 247c-1 1 -37 0 -38 0h-81v-247h-115zM192 350h131c81 0 134 44 134 125s-53 120 -136 120h-129v-245z" />
    <glyph glyph-name="S" unicode="S" horiz-adv-x="547" 
d="M280 -9c-90 0 -172 30 -242 88l52 92c60 -48 118 -75 189 -75c65 0 108 31 108 85c0 47 -23 73 -133 120c-130 55 -198 99 -198 215c0 114 91 193 216 193c84 0 150 -24 209 -68l-46 -97c-56 39 -107 60 -163 60c-62 0 -100 -34 -100 -80c0 -51 26 -74 138 -121
c133 -57 193 -108 193 -214c0 -123 -94 -198 -223 -198z" />
    <glyph glyph-name="T" unicode="T" horiz-adv-x="549" 
d="M217 0v592h-184v108h483v-108h-183v-592h-116z" />
    <glyph glyph-name="U" unicode="U" horiz-adv-x="655" 
d="M327 -10c-157 0 -259 94 -259 277v433h115v-433c0 -113 56 -171 145 -171c88 0 144 56 144 168v436h115v-430c0 -187 -104 -280 -260 -280z" />
    <glyph glyph-name="V" unicode="V" horiz-adv-x="640" 
d="M266 -4l-241 704h125l172 -529l172 529h122l-243 -704h-107z" />
    <glyph glyph-name="W" unicode="W" horiz-adv-x="961" 
d="M233 -4l-203 704h123l136 -508l143 509h100l143 -509l136 508h120l-204 -704h-104l-143 494l-143 -494h-104z" />
    <glyph glyph-name="X" unicode="X" horiz-adv-x="625" 
d="M30 0l214 358l-205 342h132l143 -243l143 243h129l-204 -341l213 -359h-132l-152 260l-152 -260h-129z" />
    <glyph glyph-name="Y" unicode="Y" horiz-adv-x="614" 
d="M249 0v279l-235 421h132l162 -302l163 302h128l-234 -420v-280h-116z" />
    <glyph glyph-name="Z" unicode="Z" horiz-adv-x="594" 
d="M53 0v86l344 511h-332v103h477v-86l-344 -511h344v-103h-489z" />
    <glyph glyph-name="bracketleft" unicode="[" horiz-adv-x="402" 
d="M351 -130h-269v830h269v-86h-162v-658h162v-86z" />
    <glyph glyph-name="backslash" unicode="\" horiz-adv-x="454" 
d="M472 -119h-97l-381 908h98z" />
    <glyph glyph-name="bracketright" unicode="]" horiz-adv-x="402" 
d="M320 -130h-269v86h162v658h-162v86h269v-830z" />
    <glyph glyph-name="asciicircum" unicode="^" horiz-adv-x="483" 
d="M411 499h-85l-85 129l-86 -129h-83l128 199h83z" />
    <glyph glyph-name="underscore" unicode="_" horiz-adv-x="557" 
d="M558 -158h-559v88h559v-88z" />
    <glyph glyph-name="grave" unicode="`" horiz-adv-x="502" 
d="M336 593h-83l-117 117l100 46z" />
    <glyph glyph-name="a" unicode="a" horiz-adv-x="516" 
d="M198 -10c-88 0 -164 59 -164 161v6c0 114 78 170 190 170c51 0 87 -8 122 -21v21c0 71 -40 109 -116 109c-51 0 -90 -12 -133 -30l-22 93c50 23 100 37 172 37c139 0 210 -74 210 -207v-329h-111v65c-32 -44 -79 -75 -148 -75zM232 75c66 0 115 42 115 102v54
c-25 11 -60 19 -99 19c-65 0 -103 -32 -103 -87v-6c0 -53 37 -82 87 -82z" />
    <glyph glyph-name="b" unicode="b" horiz-adv-x="584" 
d="M333 -10c-76 0 -122 44 -155 90v-80h-113v722h113v-277c33 51 80 95 155 95c108 0 208 -90 208 -268v-14c0 -178 -100 -268 -208 -268zM303 90c69 0 125 63 125 169v11c0 105 -57 170 -125 170s-126 -66 -126 -170v-11c0 -104 58 -169 126 -169z" />
    <glyph glyph-name="c" unicode="c" horiz-adv-x="486" 
d="M281 -11c-138 0 -240 112 -240 270v9c0 158 104 271 242 271c79 0 127 -27 168 -68l-52 -86c-32 31 -64 53 -114 53c-74 0 -130 -67 -130 -168v-10c0 -103 56 -169 135 -169c45 0 81 21 114 52l50 -79c-43 -44 -91 -75 -173 -75z" />
    <glyph glyph-name="d" unicode="d" horiz-adv-x="584" 
d="M251 -10c-107 0 -208 90 -208 268v13c0 178 100 269 208 269c77 0 123 -44 155 -90v272h113v-722h-113v85c-33 -51 -80 -95 -155 -95zM282 90c67 0 126 65 126 169v11c0 104 -59 170 -126 170c-70 0 -125 -63 -125 -170v-10c0 -105 56 -170 125 -170z" />
    <glyph glyph-name="e" unicode="e" horiz-adv-x="529" 
d="M284 -11c-136 0 -244 104 -244 270v8c0 159 97 272 228 272c144 0 221 -120 221 -278c0 -13 0 -27 -1 -40h-334c11 -91 66 -136 134 -136c53 0 89 18 128 55l53 -71c-47 -50 -104 -80 -185 -80zM153 300h225c-5 85 -44 145 -110 145c-62 0 -107 -54 -115 -145z" />
    <glyph glyph-name="f" unicode="f" horiz-adv-x="332" 
d="M89 0v433h-58v94h58v41c0 107 55 159 150 159c35 0 60 -4 81 -11v-95c-18 6 -35 9 -55 9c-42 0 -64 -23 -64 -73v-30h118v-94h-117v-433h-113z" />
    <glyph glyph-name="g" unicode="g" horiz-adv-x="584" 
d="M267 -153c-73 0 -140 18 -199 49l31 91c51 -28 105 -46 164 -46c93 0 144 46 144 140v51c-37 -52 -83 -94 -160 -94c-107 0 -204 86 -204 249v4c0 163 98 249 204 249c77 0 124 -42 159 -89v79h113v-443c0 -168 -91 -240 -252 -240zM408 288c0 95 -59 153 -128 153
s-123 -57 -123 -153c0 -93 55 -151 123 -151c69 0 128 58 128 151z" />
    <glyph glyph-name="h" unicode="h" horiz-adv-x="548" 
d="M65 0v722h113v-270c31 47 73 88 145 88c105 0 165 -74 165 -186v-354h-114v323c0 73 -34 115 -94 115s-102 -45 -102 -118v-320h-113z" />
    <glyph glyph-name="i" unicode="i" horiz-adv-x="255" 
d="M70 0v530h114v-530h-114zM68 607v111h120v-111h-120z" />
    <glyph glyph-name="j" unicode="j" horiz-adv-x="257" 
d="M42 -154c-22 0 -35 2 -52 5v91c9 -2 18 -3 27 -3c34 0 55 19 55 63v528h113v-537c0 -99 -51 -147 -143 -147zM68 607v111h121v-111h-121z" />
    <glyph glyph-name="k" unicode="k" horiz-adv-x="513" 
d="M65 0v722h113v-426l183 234h134l-176 -216l181 -314h-130l-130 227l-62 -75v-152h-113z" />
    <glyph glyph-name="l" unicode="l" horiz-adv-x="255" 
d="M70 0v722h114v-722h-114z" />
    <glyph glyph-name="m" unicode="m" horiz-adv-x="840" 
d="M65 0v530h113v-77c31 47 72 87 143 87c67 0 113 -35 138 -86c36 49 84 86 155 86c99 0 164 -67 164 -185v-355h-114v323c0 74 -33 115 -89 115c-57 0 -97 -42 -97 -117v-321h-113v323c0 74 -33 115 -91 115c-56 0 -96 -45 -96 -118v-320h-113z" />
    <glyph glyph-name="n" unicode="n" horiz-adv-x="548" 
d="M65 0v530h113v-78c31 47 73 88 145 88c105 0 165 -74 165 -186v-354h-114v323c0 73 -34 115 -94 115s-102 -45 -102 -118v-320h-113z" />
    <glyph glyph-name="o" unicode="o" horiz-adv-x="573" 
d="M285 -11c-140 0 -244 113 -244 270v9c0 156 105 271 246 271c140 0 244 -113 244 -270v-9c0 -156 -105 -271 -246 -271zM287 88c79 0 131 72 131 170v10c0 100 -55 172 -133 172c-79 0 -131 -71 -131 -170v-10c0 -99 56 -172 133 -172z" />
    <glyph glyph-name="p" unicode="p" horiz-adv-x="584" 
d="M65 -151v681h113v-85c33 51 80 95 155 95c108 0 208 -90 208 -268v-14c0 -178 -100 -268 -208 -268c-76 0 -122 44 -155 90v-231h-113zM303 90c69 0 125 63 125 169v11c0 105 -57 170 -125 170s-126 -66 -126 -170v-11c0 -104 58 -169 126 -169z" />
    <glyph glyph-name="q" unicode="q" horiz-adv-x="584" 
d="M406 -151v236c-33 -51 -80 -95 -155 -95c-107 0 -208 90 -208 268v13c0 178 100 269 208 269c77 0 123 -44 155 -90v80h113v-681h-113zM282 90c67 0 126 65 126 169v11c0 104 -59 170 -126 170c-70 0 -125 -63 -125 -170v-10c0 -105 56 -170 125 -170z" />
    <glyph glyph-name="r" unicode="r" horiz-adv-x="364" 
d="M339 415h-6c-92 0 -155 -60 -155 -182v-233h-113v530h113v-104c29 69 80 115 161 112v-123z" />
    <glyph glyph-name="s" unicode="s" horiz-adv-x="436" 
d="M218 -10c-63 0 -132 22 -188 63l38 86c51 -36 104 -56 151 -56c45 0 74 22 74 58c0 37 -43 53 -103 82c-73 34 -143 71 -143 161c0 96 75 154 174 154c55 0 114 -17 162 -47l-34 -88c-44 26 -90 42 -129 42c-42 0 -67 -21 -67 -53c0 -34 42 -51 103 -82
c75 -38 142 -74 142 -162c0 -102 -79 -158 -180 -158z" />
    <glyph glyph-name="t" unicode="t" horiz-adv-x="360" 
d="M225 -8c-79 0 -138 33 -138 137v304h-57v97h57v143h114v-143h120v-97h-120v-282c0 -41 20 -58 57 -58c21 0 42 5 61 15v-93c-25 -15 -56 -23 -94 -23z" />
    <glyph glyph-name="u" unicode="u" horiz-adv-x="548" 
d="M224 -10c-104 0 -164 73 -164 186v354h114v-323c0 -73 35 -115 94 -115s101 44 101 117v321h114v-530h-114v77c-30 -46 -72 -87 -145 -87z" />
    <glyph glyph-name="v" unicode="v" horiz-adv-x="525" 
d="M210 -3l-186 533h119l120 -385l121 385h117l-186 -533h-105z" />
    <glyph glyph-name="w" unicode="w" horiz-adv-x="762" 
d="M177 -3l-149 533h116l90 -358l99 359h97l98 -359l92 358h114l-150 -533h-104l-99 353l-101 -353h-103z" />
    <glyph glyph-name="x" unicode="x" horiz-adv-x="512" 
d="M26 0l166 270l-160 260h122l103 -175l104 175h118l-160 -258l167 -272h-122l-110 186l-109 -186h-119z" />
    <glyph glyph-name="y" unicode="y" horiz-adv-x="526" 
d="M157 -154c-45 0 -78 10 -111 27l34 87c20 -11 43 -18 65 -18c29 0 50 14 68 57l-190 531h119l124 -393l119 393h117l-185 -541c-35 -102 -80 -143 -160 -143z" />
    <glyph glyph-name="z" unicode="z" horiz-adv-x="480" 
d="M43 0v78l259 358h-251v94h389v-78l-260 -358h260v-94h-397z" />
    <glyph glyph-name="braceleft" unicode="{" horiz-adv-x="430" 
d="M387 -65l-15 -75c-162 23 -210 87 -210 184c0 28 11 66 11 98c0 68 -31 101 -106 101h-23v88h23c75 0 106 34 106 102c0 31 -11 69 -11 98c0 96 48 160 210 184l15 -75c-98 -24 -121 -54 -121 -120c0 -34 11 -68 11 -100c0 -74 -39 -115 -106 -133
c67 -18 106 -58 106 -133l-11 -99c0 -67 23 -97 121 -120z" />
    <glyph glyph-name="bar" unicode="|" horiz-adv-x="304" 
d="M198 -119h-91v908h91v-908z" />
    <glyph glyph-name="braceright" unicode="}" horiz-adv-x="431" 
d="M387 243h-23c-75 0 -105 -33 -105 -101c0 -31 10 -70 10 -98c0 -96 -48 -161 -210 -184l-15 75c98 23 122 53 122 120l-12 100c0 74 39 115 106 132c-67 19 -106 59 -106 133c0 32 12 66 12 100c0 66 -24 96 -122 120l15 75c162 -24 210 -87 210 -185
c0 -28 -10 -66 -10 -97c0 -68 30 -102 105 -102h23v-88z" />
    <glyph glyph-name="asciitilde" unicode="~" horiz-adv-x="451" 
d="M397 360c-17 -77 -49 -117 -101 -117c-28 0 -52 11 -75 22c-21 10 -40 19 -57 19c-24 0 -35 -16 -47 -48l-63 18c18 77 50 117 101 117c28 0 53 -11 75 -22c21 -10 40 -20 56 -20c25 0 36 17 48 49z" />
    <glyph glyph-name="uni00A0" unicode="&#xa0;" horiz-adv-x="257" 
 />
    <glyph glyph-name="exclamdown" unicode="&#xa1;" horiz-adv-x="275" 
d="M201 567h-127v133h127v-133zM204 0h-134v35l37 448h61l36 -448v-35z" />
    <glyph glyph-name="cent" unicode="&#xa2;" horiz-adv-x="496" 
d="M367 705l-11 -85c41 -11 72 -33 99 -60l-51 -84c-21 20 -44 35 -71 43l-47 -339h4c45 0 84 21 117 52l49 -76c-44 -45 -96 -78 -175 -78l-11 -84h-81l13 98c-93 35 -157 132 -157 257v8c0 155 97 267 231 272l10 76h81zM155 350c0 -76 26 -129 71 -154l45 330
c-70 -7 -116 -75 -116 -167v-9z" />
    <glyph glyph-name="sterling" unicode="&#xa3;" horiz-adv-x="553" 
d="M512 0h-460v74l70 22v187h-70v98h70v104c0 71 20 130 58 168c35 35 87 56 151 56c86 0 137 -35 176 -81l-66 -82c-30 34 -60 54 -105 54c-27 0 -50 -8 -67 -26c-20 -19 -30 -52 -30 -90v-103h205v-98h-205v-181h273v-102z" />
    <glyph glyph-name="currency" unicode="&#xa4;" horiz-adv-x="616" 
d="M577 93c-48 -61 -105 -104 -195 -104c-131 0 -226 90 -259 239h-82v81h71c-1 12 -1 25 -1 37v7c0 14 0 29 1 43h-71v81h84c35 144 130 234 257 234c95 0 149 -41 193 -97l-65 -79c-37 46 -72 71 -128 71c-64 0 -113 -46 -137 -129h185v-81h-200c-2 -13 -2 -27 -2 -42v-7
c0 -13 0 -25 1 -38h201v-81h-187c24 -88 76 -134 145 -134c53 0 89 28 127 74z" />
    <glyph glyph-name="yen" unicode="&#xa5;" horiz-adv-x="595" 
d="M353 261v-72h162v-85h-162v-104h-111v104h-161v85h161v72h-161v85h132l-196 354h130l152 -297l154 297h126l-198 -354h134v-85h-162z" />
    <glyph glyph-name="brokenbar" unicode="&#xa6;" 
d="M0 0v700h500v-700h-500zM81 49h339l-170 255zM49 96l171 254l-171 254v-508zM450 96v508l-171 -254zM250 395l170 255h-339z" />
    <glyph glyph-name="section" unicode="&#xa7;" horiz-adv-x="562" 
d="M515 346c0 -59 -39 -98 -101 -117c33 -24 49 -56 49 -94v-1c0 -87 -70 -143 -180 -143c-79 0 -146 28 -195 73l48 76c44 -35 92 -58 145 -58c48 0 73 19 73 48v1c0 32 -27 48 -124 78c-131 40 -183 74 -183 144v1c0 59 39 99 102 118c-34 25 -50 56 -50 94v1
c0 87 69 142 181 142c78 0 140 -26 188 -71l-47 -76c-41 35 -87 57 -139 57c-51 0 -74 -21 -74 -48v-1c0 -29 26 -49 124 -79c131 -40 183 -74 183 -144v-1zM411 331v2c0 30 -26 50 -114 79c-33 11 -56 15 -76 16c-43 -3 -70 -30 -70 -59v-2c0 -30 25 -50 113 -79
c34 -11 56 -15 77 -16c43 3 70 30 70 59z" />
    <glyph glyph-name="dieresis" unicode="&#xa8;" horiz-adv-x="502" 
d="M399 598h-112v111h112v-111zM215 598h-112v111h112v-111z" />
    <glyph glyph-name="copyright" unicode="&#xa9;" horiz-adv-x="738" 
d="M693 355v-10c0 -199 -141 -356 -325 -356s-323 156 -323 355v10c0 199 141 357 325 357c183 0 323 -157 323 -356zM656 345v10c0 180 -120 321 -286 321c-168 0 -288 -142 -288 -322v-11c0 -179 119 -319 286 -319s288 142 288 321zM497 207c-32 -31 -68 -51 -123 -51
c-94 0 -166 79 -166 195v4c0 115 72 195 170 195c54 0 87 -18 116 -44l-33 -56c-24 20 -51 35 -82 35c-57 0 -99 -49 -99 -129v-6c0 -79 42 -129 99 -129c34 0 59 15 85 37z" />
    <glyph glyph-name="ordfeminine" unicode="&#xaa;" horiz-adv-x="350" 
d="M285 408h-65v35c-18 -25 -43 -40 -78 -40c-49 0 -91 31 -91 89v3c0 63 44 94 105 94c26 0 46 -5 65 -12v11c0 37 -22 58 -62 58c-27 0 -48 -8 -73 -18l-13 54c29 13 56 22 96 22c77 0 116 -42 116 -116v-180zM291 290h-242v53h242v-53zM221 507v28c-14 5 -31 9 -52 9
c-33 0 -53 -16 -53 -46v-1c0 -29 18 -44 45 -44c34 0 60 22 60 54z" />
    <glyph glyph-name="guillemotleft" unicode="&#xab;" horiz-adv-x="554" 
d="M509 87l-88 -46l-154 219v8l154 220l88 -45l-125 -178zM280 87l-88 -46l-154 219v8l154 220l87 -45l-124 -178z" />
    <glyph glyph-name="logicalnot" unicode="&#xac;" horiz-adv-x="590" 
d="M404 417h-332v107h442v-280h-110v173z" />
    <glyph glyph-name="uni00AD" unicode="&#xad;" horiz-adv-x="381" 
d="M329 250h-278v112h278v-112z" />
    <glyph glyph-name="registered" unicode="&#xae;" horiz-adv-x="738" 
d="M693 355v-10c0 -199 -141 -356 -325 -356s-323 156 -323 355v10c0 199 141 357 325 357c183 0 323 -157 323 -356zM656 345v10c0 180 -120 321 -286 321c-168 0 -288 -142 -288 -322v-11c0 -179 119 -319 286 -319s288 142 288 321zM517 429v-2c0 -57 -33 -95 -77 -111
l88 -148h-78l-80 133c0 1 -59 0 -61 0v-133h-68v381h139c81 0 137 -43 137 -120zM448 425v1c0 42 -29 62 -71 62h-68v-127h69c42 0 70 23 70 64z" />
    <glyph glyph-name="macron" unicode="&#xaf;" horiz-adv-x="502" 
d="M408 602h-314v84h314v-84z" />
    <glyph glyph-name="degree" unicode="&#xb0;" horiz-adv-x="410" 
d="M354 541c0 -90 -70 -162 -149 -162c-80 0 -149 72 -149 162v3c0 90 69 162 149 162c79 0 149 -72 149 -162v-3zM285 541v3c0 56 -36 97 -80 97c-45 0 -79 -41 -79 -97v-3c0 -56 34 -97 79 -97c44 0 80 41 80 97z" />
    <glyph glyph-name="plusminus" unicode="&#xb1;" horiz-adv-x="590" 
d="M68 25v101h454v-101h-454zM240 195v144h-176v106h176v144h111v-144h173v-106h-173v-144h-111z" />
    <glyph glyph-name="twosuperior" unicode="&#xb2;" 
d="M0 0v700h500v-700h-500zM81 49h339l-170 255zM49 96l171 254l-171 254v-508zM450 96v508l-171 -254zM250 395l170 255h-339z" />
    <glyph glyph-name="threesuperior" unicode="&#xb3;" 
d="M0 0v700h500v-700h-500zM81 49h339l-170 255zM49 96l171 254l-171 254v-508zM450 96v508l-171 -254zM250 395l170 255h-339z" />
    <glyph glyph-name="acute" unicode="&#xb4;" horiz-adv-x="502" 
d="M363 710l-117 -117h-83l100 163z" />
    <glyph glyph-name="mu" unicode="&#xb5;" horiz-adv-x="555" 
d="M490 0h-113v78c-25 -46 -73 -81 -135 -81c-32 0 -52 11 -63 24v-172h-114v681h114v-306c0 -76 34 -135 95 -135c73 0 103 65 103 157v284h113v-530z" />
    <glyph glyph-name="paragraph" unicode="&#xb6;" horiz-adv-x="496" 
d="M290 700h131v-700h-117v241h-13c-145 2 -258 79 -258 229v1c0 148 107 229 257 229z" />
    <glyph glyph-name="periodcentered" unicode="&#xb7;" horiz-adv-x="254" 
d="M191 240h-128v132h128v-132z" />
    <glyph glyph-name="cedilla" unicode="&#xb8;" horiz-adv-x="502" 
d="M307 12l-71 -168l-99 40l89 128h81z" />
    <glyph glyph-name="onesuperior" unicode="&#xb9;" 
d="M0 0v700h500v-700h-500zM81 49h339l-170 255zM49 96l171 254l-171 254v-508zM450 96v508l-171 -254zM250 395l170 255h-339z" />
    <glyph glyph-name="ordmasculine" unicode="&#xba;" horiz-adv-x="350" 
d="M307 552c0 -87 -56 -150 -133 -150c-76 0 -131 62 -131 149v5c0 86 56 149 132 149s132 -63 132 -149v-4zM301 290h-253v53h253v-53zM241 551v5c0 52 -27 91 -67 91c-41 0 -66 -39 -66 -90v-6c0 -52 27 -91 67 -91c41 0 66 38 66 91z" />
    <glyph glyph-name="guillemotright" unicode="&#xbb;" horiz-adv-x="554" 
d="M516 260l-154 -219l-88 45l126 178l-126 177l88 47l154 -220v-8zM287 260l-155 -219l-88 45l127 178l-126 177l87 47l155 -220v-8z" />
    <glyph glyph-name="onequarter" unicode="&#xbc;" 
d="M0 0v700h500v-700h-500zM81 49h339l-170 255zM49 96l171 254l-171 254v-508zM450 96v508l-171 -254zM250 395l170 255h-339z" />
    <glyph glyph-name="onehalf" unicode="&#xbd;" 
d="M0 0v700h500v-700h-500zM81 49h339l-170 255zM49 96l171 254l-171 254v-508zM450 96v508l-171 -254zM250 395l170 255h-339z" />
    <glyph glyph-name="threequarters" unicode="&#xbe;" 
d="M0 0v700h500v-700h-500zM81 49h339l-170 255zM49 96l171 254l-171 254v-508zM450 96v508l-171 -254zM250 395l170 255h-339z" />
    <glyph glyph-name="questiondown" unicode="&#xbf;" horiz-adv-x="475" 
d="M198 700h128v-132h-128v132zM36 191c0 118 79 174 178 196l10 96h75l17 -166l-4 -5c-109 -10 -162 -52 -162 -118v-2c0 -56 42 -94 108 -94c55 0 99 22 141 63l52 -83c-49 -51 -111 -86 -200 -86c-129 0 -215 78 -215 195v4z" />
    <glyph glyph-name="Agrave" unicode="&#xc0;" horiz-adv-x="674" 
d="M25 0l256 704h112l256 -704h-120l-59 165h-270l-59 -165h-116zM235 268h199l-99 281zM385 752h-83l-117 117l100 46z" />
    <glyph glyph-name="Aacute" unicode="&#xc1;" horiz-adv-x="674" 
d="M25 0l256 704h112l256 -704h-120l-59 165h-270l-59 -165h-116zM235 268h199l-99 281zM487 869l-117 -117h-83l100 163z" />
    <glyph glyph-name="Acircumflex" unicode="&#xc2;" horiz-adv-x="674" 
d="M25 0l256 704h112l256 -704h-120l-59 165h-270l-59 -165h-116zM235 268h199l-99 281zM491 752h-86l-69 76l-69 -76h-84l103 146h102z" />
    <glyph glyph-name="Atilde" unicode="&#xc3;" horiz-adv-x="674" 
d="M649 0h-120l-59 165h-270l-59 -165h-116l256 704h112zM434 268l-99 281l-100 -281h199zM507 867c-17 -76 -49 -116 -101 -116c-31 0 -57 13 -81 24c-19 10 -35 18 -50 18c-25 0 -35 -16 -48 -49l-63 19c18 77 50 116 101 116c30 0 56 -11 79 -23c20 -11 37 -18 53 -18
c24 0 35 15 47 49z" />
    <glyph glyph-name="Adieresis" unicode="&#xc4;" horiz-adv-x="674" 
d="M25 0l256 704h112l256 -704h-120l-59 165h-270l-59 -165h-116zM235 268h199l-99 281zM485 757h-112v111h112v-111zM301 757h-112v111h112v-111z" />
    <glyph glyph-name="Aring" unicode="&#xc5;" horiz-adv-x="674" 
d="M649 0h-120l-59 165h-271l-58 -165h-117l249 682c-27 18 -46 51 -46 87v2c0 60 51 110 110 110c58 0 110 -50 110 -110v-2c0 -36 -20 -69 -46 -87zM394 769v2c0 32 -25 60 -57 60c-33 0 -57 -28 -57 -60v-2c0 -32 25 -60 57 -60s57 28 57 60zM434 268l-99 281l-100 -281
h199z" />
    <glyph glyph-name="AE" unicode="&#xc6;" horiz-adv-x="894" 
d="M847 0h-430v165h-213l-77 -165h-117l329 700h503v-105h-310v-190h274v-105h-274v-195h315v-105zM417 268v326h-17l-149 -326h166z" />
    <glyph glyph-name="Ccedilla" unicode="&#xc7;" horiz-adv-x="617" 
d="M294 -3c-142 29 -244 161 -244 348v9c0 211 132 356 312 356c101 0 161 -33 214 -81l-55 -94c-46 40 -94 67 -157 67c-111 0 -193 -96 -193 -247v-9c0 -152 81 -248 194 -248c66 0 111 26 161 70l55 -85c-54 -53 -114 -88 -204 -92l-62 -147l-99 40z" />
    <glyph glyph-name="Egrave" unicode="&#xc8;" horiz-adv-x="568" 
d="M521 0h-444v700h440v-105h-325v-190h288v-105h-288v-195h329v-105zM360 752h-83l-117 117l100 46z" />
    <glyph glyph-name="Eacute" unicode="&#xc9;" horiz-adv-x="568" 
d="M77 0v700h440v-105h-325v-190h288v-105h-288v-195h329v-105h-444zM431 869l-117 -117h-83l100 163z" />
    <glyph glyph-name="Ecircumflex" unicode="&#xca;" horiz-adv-x="568" 
d="M521 0h-444v700h440v-105h-325v-190h288v-105h-288v-195h329v-105zM447 753h-86l-69 76l-69 -76h-84l103 146h102z" />
    <glyph glyph-name="Edieresis" unicode="&#xcb;" horiz-adv-x="568" 
d="M77 0v700h440v-105h-325v-190h288v-105h-288v-195h329v-105h-444zM443 757h-112v111h112v-111zM259 757h-112v111h112v-111z" />
    <glyph glyph-name="Igrave" unicode="&#xcc;" horiz-adv-x="281" 
d="M198 0h-116v700h116v-700zM186 752h-83l-117 117l100 46z" />
    <glyph glyph-name="Iacute" unicode="&#xcd;" horiz-adv-x="281" 
d="M82 0v700h116v-700h-116zM293 869l-117 -117h-83l100 163z" />
    <glyph glyph-name="Icircumflex" unicode="&#xce;" horiz-adv-x="281" 
d="M198 0h-116v700h116v-700zM295 753h-86l-69 76l-69 -76h-84l103 146h102z" />
    <glyph glyph-name="Idieresis" unicode="&#xcf;" horiz-adv-x="281" 
d="M82 0v700h116v-700h-116zM289 757h-112v111h112v-111zM105 757h-112v111h112v-111z" />
    <glyph glyph-name="Eth" unicode="&#xd0;" horiz-adv-x="700" 
d="M649 347c0 -206 -134 -347 -332 -347h-213v299h-68v105h68v296h213c198 0 332 -141 332 -346v-7zM529 346v6c0 151 -86 242 -210 242h-101v-190h144v-105h-144v-194h102c123 0 209 89 209 241z" />
    <glyph glyph-name="Ntilde" unicode="&#xd1;" horiz-adv-x="681" 
d="M77 0v700h107l307 -466v466h114v-700h-99l-316 481v-481h-113zM514 867c-17 -76 -49 -116 -101 -116c-31 0 -57 13 -81 24c-19 10 -35 18 -50 18c-25 0 -35 -16 -48 -49l-63 19c18 77 50 116 101 116c30 0 56 -11 79 -23c20 -11 37 -18 53 -18c24 0 35 15 47 49z" />
    <glyph glyph-name="Ograve" unicode="&#xd2;" horiz-adv-x="720" 
d="M359 -11c-182 0 -309 148 -309 355v10c0 208 128 357 311 357c181 0 308 -148 308 -355v-10c0 -208 -128 -357 -310 -357zM361 96c111 0 189 97 189 248v10c0 152 -80 250 -191 250c-110 0 -188 -97 -188 -248v-10c0 -152 79 -250 190 -250zM399 752h-83l-117 117l100 46
z" />
    <glyph glyph-name="Oacute" unicode="&#xd3;" horiz-adv-x="720" 
d="M359 -11c-182 0 -309 148 -309 355v10c0 208 128 357 311 357c181 0 308 -148 308 -355v-10c0 -208 -128 -357 -310 -357zM361 96c111 0 189 97 189 248v10c0 152 -80 250 -191 250c-110 0 -188 -97 -188 -248v-10c0 -152 79 -250 190 -250zM516 869l-117 -117h-83
l100 163z" />
    <glyph glyph-name="Ocircumflex" unicode="&#xd4;" horiz-adv-x="720" 
d="M669 346c0 -208 -128 -357 -310 -357s-309 148 -309 355v10c0 208 128 357 311 357c181 0 308 -148 308 -355v-10zM550 344v10c0 152 -80 250 -191 250c-110 0 -188 -97 -188 -248v-10c0 -152 79 -250 190 -250s189 97 189 248zM514 753h-86l-69 76l-69 -76h-84l103 146
h102z" />
    <glyph glyph-name="Otilde" unicode="&#xd5;" horiz-adv-x="720" 
d="M359 -11c-182 0 -309 148 -309 355v10c0 208 128 357 311 357c181 0 308 -148 308 -355v-10c0 -208 -128 -357 -310 -357zM361 96c111 0 189 97 189 248v10c0 152 -80 250 -191 250c-110 0 -188 -97 -188 -248v-10c0 -152 79 -250 190 -250zM531 867
c-17 -76 -49 -116 -101 -116c-31 0 -57 13 -81 24c-19 10 -35 18 -50 18c-25 0 -35 -16 -48 -49l-63 19c18 77 50 116 101 116c30 0 56 -11 79 -23c20 -11 37 -18 53 -18c24 0 35 15 47 49z" />
    <glyph glyph-name="Odieresis" unicode="&#xd6;" horiz-adv-x="720" 
d="M359 -11c-182 0 -309 148 -309 355v10c0 208 128 357 311 357c181 0 308 -148 308 -355v-10c0 -208 -128 -357 -310 -357zM361 96c111 0 189 97 189 248v10c0 152 -80 250 -191 250c-110 0 -188 -97 -188 -248v-10c0 -152 79 -250 190 -250zM508 757h-112v111h112v-111z
M324 757h-112v111h112v-111z" />
    <glyph glyph-name="multiply" unicode="&#xd7;" 
d="M0 0v700h500v-700h-500zM81 49h339l-170 255zM49 96l171 254l-171 254v-508zM450 96v508l-171 -254zM250 395l170 255h-339z" />
    <glyph glyph-name="Oslash" unicode="&#xd8;" horiz-adv-x="720" 
d="M669 354v-8c0 -208 -129 -357 -310 -357c-65 0 -124 19 -171 53l-38 -47h-103l80 104c-48 62 -77 148 -77 245v9c0 208 129 358 311 358c65 0 125 -21 172 -57l39 51h104l-83 -109c48 -61 76 -145 76 -242zM466 559c-28 30 -65 47 -107 47c-112 0 -191 -100 -191 -252v-8
c0 -52 13 -99 35 -137zM552 344v9c0 49 -13 95 -35 132l-263 -349c28 -28 66 -44 107 -44c111 0 191 101 191 252z" />
    <glyph glyph-name="Ugrave" unicode="&#xd9;" horiz-adv-x="655" 
d="M327 -10c-157 0 -259 94 -259 277v433h115v-433c0 -113 56 -171 145 -171c88 0 144 56 144 168v436h115v-430c0 -187 -104 -280 -260 -280zM375 749h-83l-117 117l100 46z" />
    <glyph glyph-name="Uacute" unicode="&#xda;" horiz-adv-x="655" 
d="M327 -10c-157 0 -259 94 -259 277v433h115v-433c0 -113 56 -171 145 -171c88 0 144 56 144 168v436h115v-430c0 -187 -104 -280 -260 -280zM479 866l-117 -117h-83l100 163z" />
    <glyph glyph-name="Ucircumflex" unicode="&#xdb;" horiz-adv-x="655" 
d="M587 270c0 -187 -104 -280 -260 -280c-157 0 -259 94 -259 277v433h115v-433c0 -113 56 -171 145 -171c88 0 144 56 144 168v436h115v-430zM482 752h-86l-69 76l-69 -76h-84l103 146h102z" />
    <glyph glyph-name="Udieresis" unicode="&#xdc;" horiz-adv-x="655" 
d="M587 270c0 -187 -104 -280 -260 -280c-157 0 -259 94 -259 277v433h115v-433c0 -113 56 -171 145 -171c88 0 144 56 144 168v436h115v-430zM476 756h-112v111h112v-111zM292 756h-112v111h112v-111z" />
    <glyph glyph-name="Yacute" unicode="&#xdd;" horiz-adv-x="614" 
d="M249 0v279l-235 421h132l162 -302l163 302h128l-234 -420v-280h-116zM462 866l-117 -117h-83l100 163z" />
    <glyph glyph-name="Thorn" unicode="&#xde;" horiz-adv-x="585" 
d="M551 358c0 -156 -114 -238 -259 -239h-100v-119h-116v700h116v-108h110c147 0 249 -86 249 -234zM434 355c0 87 -55 131 -138 131h-104v-263h103c85 0 139 52 139 132z" />
    <glyph glyph-name="germandbls" unicode="&#xdf;" horiz-adv-x="552" 
d="M510 196c0 -126 -94 -200 -247 -198v89c86 4 134 44 134 112v1c0 66 -52 106 -134 118v79c60 29 100 74 100 137v2c0 58 -35 94 -88 94c-58 0 -97 -47 -97 -123v-507h-113v503c0 138 83 225 215 225c123 0 195 -79 195 -181v-2c0 -88 -47 -139 -103 -171
c75 -26 138 -79 138 -176v-2z" />
    <glyph glyph-name="agrave" unicode="&#xe0;" horiz-adv-x="516" 
d="M457 0h-111v65c-32 -44 -79 -75 -148 -75c-88 0 -164 59 -164 161v6c0 114 78 170 190 170c51 0 87 -8 122 -21v21c0 71 -40 109 -116 109c-51 0 -90 -12 -133 -30l-22 93c50 23 100 37 172 37c139 0 210 -74 210 -207v-329zM347 177v54c-25 11 -60 19 -99 19
c-65 0 -103 -32 -103 -87v-6c0 -53 37 -82 87 -82c66 0 115 42 115 102zM306 593h-83l-117 117l100 46z" />
    <glyph glyph-name="aacute" unicode="&#xe1;" horiz-adv-x="516" 
d="M198 -10c-88 0 -164 59 -164 161v6c0 114 78 170 190 170c51 0 87 -8 122 -21v21c0 71 -40 109 -116 109c-51 0 -90 -12 -133 -30l-22 93c50 23 100 37 172 37c139 0 210 -74 210 -207v-329h-111v65c-32 -44 -79 -75 -148 -75zM232 75c66 0 115 42 115 102v54
c-25 11 -60 19 -99 19c-65 0 -103 -32 -103 -87v-6c0 -53 37 -82 87 -82zM401 710l-117 -117h-83l100 163z" />
    <glyph glyph-name="acircumflex" unicode="&#xe2;" horiz-adv-x="516" 
d="M198 -10c-88 0 -164 59 -164 161v6c0 114 78 170 190 170c51 0 87 -8 122 -21v21c0 71 -40 109 -116 109c-51 0 -90 -12 -133 -30l-22 93c50 23 100 37 172 37c139 0 210 -74 210 -207v-329h-111v65c-32 -44 -79 -75 -148 -75zM232 75c66 0 115 42 115 102v54
c-25 11 -60 19 -99 19c-65 0 -103 -32 -103 -87v-6c0 -53 37 -82 87 -82zM411 594h-86l-69 76l-69 -76h-84l103 146h102z" />
    <glyph glyph-name="atilde" unicode="&#xe3;" horiz-adv-x="516" 
d="M198 -10c-88 0 -164 59 -164 161v6c0 114 78 170 190 170c51 0 87 -8 122 -21v21c0 71 -40 109 -116 109c-51 0 -90 -12 -133 -30l-22 93c50 23 100 37 172 37c139 0 210 -74 210 -207v-329h-111v65c-32 -44 -79 -75 -148 -75zM232 75c66 0 115 42 115 102v54
c-25 11 -60 19 -99 19c-65 0 -103 -32 -103 -87v-6c0 -53 37 -82 87 -82zM429 708c-17 -76 -49 -116 -101 -116c-31 0 -57 13 -81 24c-19 10 -35 18 -50 18c-25 0 -35 -16 -48 -49l-63 19c18 77 50 116 101 116c30 0 56 -11 79 -23c20 -11 37 -18 53 -18c24 0 35 15 47 49z
" />
    <glyph glyph-name="adieresis" unicode="&#xe4;" horiz-adv-x="516" 
d="M457 0h-111v65c-32 -44 -79 -75 -148 -75c-88 0 -164 59 -164 161v6c0 114 78 170 190 170c51 0 87 -8 122 -21v21c0 71 -40 109 -116 109c-51 0 -90 -12 -133 -30l-22 93c50 23 100 37 172 37c139 0 210 -74 210 -207v-329zM347 177v54c-25 11 -60 19 -99 19
c-65 0 -103 -32 -103 -87v-6c0 -53 37 -82 87 -82c66 0 115 42 115 102zM404 598h-112v111h112v-111zM220 598h-112v111h112v-111z" />
    <glyph glyph-name="aring" unicode="&#xe5;" horiz-adv-x="516" 
d="M457 0h-111v65c-32 -44 -79 -75 -148 -75c-88 0 -164 59 -164 161v6c0 114 78 170 190 170c51 0 87 -8 122 -21v21c0 71 -40 109 -116 109c-51 0 -90 -12 -133 -30l-22 93c50 23 100 37 172 37c139 0 210 -74 210 -207v-329zM347 177v54c-25 11 -60 19 -99 19
c-65 0 -103 -32 -103 -87v-6c0 -53 37 -82 87 -82c66 0 115 42 115 102zM364 700v-3c0 -59 -51 -108 -109 -108c-59 0 -110 49 -110 108v3c0 60 51 109 110 109c58 0 109 -49 109 -109zM312 698v2c0 32 -25 60 -57 60c-33 0 -58 -28 -58 -60v-2c0 -31 26 -60 58 -60
s57 29 57 60z" />
    <glyph glyph-name="ae" unicode="&#xe6;" horiz-adv-x="829" 
d="M209 -10c-100 0 -175 60 -175 163v5c0 113 77 169 189 169c50 0 85 -8 121 -21v21c0 71 -40 109 -115 109c-51 0 -89 -12 -132 -30l-22 93c51 23 99 37 171 37c81 0 136 -27 165 -80c37 52 92 83 159 83c143 0 220 -120 220 -278l-1 -40h-335c11 -91 66 -136 135 -136
c52 0 88 18 129 55l51 -71c-47 -50 -104 -80 -185 -80c-76 0 -143 34 -186 95c-45 -52 -108 -94 -189 -94zM232 76c49 0 95 28 131 74c-9 25 -14 54 -16 82c-28 10 -62 18 -100 18c-64 0 -102 -30 -102 -87v-4c0 -53 36 -83 87 -83zM453 300h226c-6 85 -44 145 -111 145
c-63 0 -107 -54 -115 -145z" />
    <glyph glyph-name="ccedilla" unicode="&#xe7;" horiz-adv-x="486" 
d="M220 -2c-106 27 -179 128 -179 261v9c0 158 104 271 242 271c79 0 127 -27 168 -68l-52 -86c-32 31 -64 53 -114 53c-74 0 -130 -67 -130 -168v-10c0 -103 56 -169 135 -169c45 0 81 21 114 52l50 -79c-39 -41 -83 -69 -152 -74l-63 -146l-99 40z" />
    <glyph glyph-name="egrave" unicode="&#xe8;" horiz-adv-x="529" 
d="M489 261l-1 -40h-334c11 -91 66 -136 134 -136c53 0 89 18 128 55l53 -71c-47 -50 -104 -80 -185 -80c-136 0 -244 104 -244 270v8c0 159 97 272 228 272c144 0 221 -120 221 -278zM378 300c-5 85 -44 145 -110 145c-62 0 -107 -54 -115 -145h225zM312 593h-83l-117 117
l100 46z" />
    <glyph glyph-name="eacute" unicode="&#xe9;" horiz-adv-x="529" 
d="M284 -11c-136 0 -244 104 -244 270v8c0 159 97 272 228 272c144 0 221 -120 221 -278c0 -13 0 -27 -1 -40h-334c11 -91 66 -136 134 -136c53 0 89 18 128 55l53 -71c-47 -50 -104 -80 -185 -80zM153 300h225c-5 85 -44 145 -110 145c-62 0 -107 -54 -115 -145zM417 710
l-117 -117h-83l100 163z" />
    <glyph glyph-name="ecircumflex" unicode="&#xea;" horiz-adv-x="529" 
d="M284 -11c-136 0 -244 104 -244 270v8c0 159 97 272 228 272c144 0 221 -120 221 -278c0 -13 0 -27 -1 -40h-334c11 -91 66 -136 134 -136c53 0 89 18 128 55l53 -71c-47 -50 -104 -80 -185 -80zM153 300h225c-5 85 -44 145 -110 145c-62 0 -107 -54 -115 -145zM422 594
h-86l-69 76l-69 -76h-84l103 146h102z" />
    <glyph glyph-name="edieresis" unicode="&#xeb;" horiz-adv-x="529" 
d="M489 261l-1 -40h-334c11 -91 66 -136 134 -136c53 0 89 18 128 55l53 -71c-47 -50 -104 -80 -185 -80c-136 0 -244 104 -244 270v8c0 159 97 272 228 272c144 0 221 -120 221 -278zM378 300c-5 85 -44 145 -110 145c-62 0 -107 -54 -115 -145h225zM416 598h-112v111h112
v-111zM232 598h-112v111h112v-111z" />
    <glyph glyph-name="igrave" unicode="&#xec;" horiz-adv-x="255" 
d="M184 0h-114v530h114v-530zM174 593h-83l-117 117l100 46z" />
    <glyph glyph-name="iacute" unicode="&#xed;" horiz-adv-x="255" 
d="M184 0h-114v530h114v-530zM279 710l-117 -117h-83l100 163z" />
    <glyph glyph-name="icircumflex" unicode="&#xee;" horiz-adv-x="255" 
d="M184 0h-114v530h114v-530zM282 594h-86l-69 76l-69 -76h-84l103 146h102z" />
    <glyph glyph-name="idieresis" unicode="&#xef;" horiz-adv-x="255" 
d="M184 0h-114v530h114v-530zM276 598h-112v111h112v-111zM92 598h-112v111h112v-111z" />
    <glyph glyph-name="eth" unicode="&#xf0;" horiz-adv-x="560" 
d="M517 249c0 -149 -95 -260 -242 -260c-134 0 -234 105 -234 252v4c0 144 89 235 198 235c47 0 83 -14 121 -42l-90 136l-106 -51l-44 64l110 51l-53 84h124l23 -40l88 41l44 -64l-92 -42l76 -120c51 -82 77 -154 77 -244v-4zM405 239v4c0 92 -54 151 -128 151
s-124 -59 -124 -151v-4c0 -91 53 -153 127 -153c75 0 125 62 125 153z" />
    <glyph glyph-name="ntilde" unicode="&#xf1;" horiz-adv-x="548" 
d="M488 0h-114v323c0 73 -34 115 -94 115s-102 -45 -102 -118v-320h-113v530h113v-78c31 47 73 88 145 88c105 0 165 -74 165 -186v-354zM449 708c-17 -76 -49 -116 -101 -116c-31 0 -57 13 -81 24c-19 10 -35 18 -50 18c-25 0 -35 -16 -48 -49l-63 19c18 77 50 116 101 116
c30 0 56 -11 79 -23c20 -11 37 -18 53 -18c24 0 35 15 47 49z" />
    <glyph glyph-name="ograve" unicode="&#xf2;" horiz-adv-x="573" 
d="M531 260c0 -156 -105 -271 -246 -271c-140 0 -244 113 -244 270v9c0 156 105 271 246 271c140 0 244 -113 244 -270v-9zM418 258v10c0 100 -55 172 -133 172c-79 0 -131 -71 -131 -170v-10c0 -99 56 -172 133 -172c79 0 131 72 131 170zM329 593h-83l-117 117l100 46z
" />
    <glyph glyph-name="oacute" unicode="&#xf3;" horiz-adv-x="573" 
d="M285 -11c-140 0 -244 113 -244 270v9c0 156 105 271 246 271c140 0 244 -113 244 -270v-9c0 -156 -105 -271 -246 -271zM287 88c79 0 131 72 131 170v10c0 100 -55 172 -133 172c-79 0 -131 -71 -131 -170v-10c0 -99 56 -172 133 -172zM443 710l-117 -117h-83l100 163z
" />
    <glyph glyph-name="ocircumflex" unicode="&#xf4;" horiz-adv-x="573" 
d="M285 -11c-140 0 -244 113 -244 270v9c0 156 105 271 246 271c140 0 244 -113 244 -270v-9c0 -156 -105 -271 -246 -271zM287 88c79 0 131 72 131 170v10c0 100 -55 172 -133 172c-79 0 -131 -71 -131 -170v-10c0 -99 56 -172 133 -172zM440 594h-86l-69 76l-69 -76h-84
l103 146h102z" />
    <glyph glyph-name="otilde" unicode="&#xf5;" horiz-adv-x="573" 
d="M285 -11c-140 0 -244 113 -244 270v9c0 156 105 271 246 271c140 0 244 -113 244 -270v-9c0 -156 -105 -271 -246 -271zM287 88c79 0 131 72 131 170v10c0 100 -55 172 -133 172c-79 0 -131 -71 -131 -170v-10c0 -99 56 -172 133 -172zM457 708
c-17 -76 -49 -116 -101 -116c-31 0 -57 13 -81 24c-19 10 -35 18 -50 18c-25 0 -35 -16 -48 -49l-63 19c18 77 50 116 101 116c30 0 56 -11 79 -23c20 -11 37 -18 53 -18c24 0 35 15 47 49z" />
    <glyph glyph-name="odieresis" unicode="&#xf6;" horiz-adv-x="573" 
d="M531 260c0 -156 -105 -271 -246 -271c-140 0 -244 113 -244 270v9c0 156 105 271 246 271c140 0 244 -113 244 -270v-9zM418 258v10c0 100 -55 172 -133 172c-79 0 -131 -71 -131 -170v-10c0 -99 56 -172 133 -172c79 0 131 72 131 170zM434 598h-112v111h112v-111z
M250 598h-112v111h112v-111z" />
    <glyph glyph-name="divide" unicode="&#xf7;" horiz-adv-x="590" 
d="M514 299h-438v107h438v-107zM360 97h-118v122h118v-122zM360 486h-118v122h118v-122z" />
    <glyph glyph-name="oslash" unicode="&#xf8;" horiz-adv-x="573" 
d="M531 268v-8c0 -156 -105 -271 -246 -271c-49 0 -94 15 -132 40l-29 -34h-95l68 86c-36 47 -56 109 -56 178v7c0 157 105 273 246 273c49 0 95 -15 131 -41l30 37h95l-69 -88c36 -46 57 -109 57 -179zM356 414c-19 18 -44 28 -71 28c-79 0 -135 -73 -135 -174v-8
c0 -30 8 -59 20 -82zM422 258v9c0 31 -8 60 -20 83l-186 -237c19 -18 44 -28 71 -28c79 0 135 73 135 173z" />
    <glyph glyph-name="ugrave" unicode="&#xf9;" horiz-adv-x="548" 
d="M483 0h-114v77c-30 -46 -72 -87 -145 -87c-104 0 -164 73 -164 186v354h114v-323c0 -73 35 -115 94 -115s101 44 101 117v321h114v-530zM324 592h-83l-117 117l100 46z" />
    <glyph glyph-name="uacute" unicode="&#xfa;" horiz-adv-x="548" 
d="M224 -10c-104 0 -164 73 -164 186v354h114v-323c0 -73 35 -115 94 -115s101 44 101 117v321h114v-530h-114v77c-30 -46 -72 -87 -145 -87zM421 709l-117 -117h-83l100 163z" />
    <glyph glyph-name="ucircumflex" unicode="&#xfb;" horiz-adv-x="548" 
d="M224 -10c-104 0 -164 73 -164 186v354h114v-323c0 -73 35 -115 94 -115s101 44 101 117v321h114v-530h-114v77c-30 -46 -72 -87 -145 -87zM428 594h-86l-69 76l-69 -76h-84l103 146h102z" />
    <glyph glyph-name="udieresis" unicode="&#xfc;" horiz-adv-x="548" 
d="M483 0h-114v77c-30 -46 -72 -87 -145 -87c-104 0 -164 73 -164 186v354h114v-323c0 -73 35 -115 94 -115s101 44 101 117v321h114v-530zM422 598h-112v111h112v-111zM238 598h-112v111h112v-111z" />
    <glyph glyph-name="yacute" unicode="&#xfd;" horiz-adv-x="526" 
d="M502 530l-185 -541c-36 -102 -80 -143 -160 -143c-45 0 -78 10 -111 27l34 87c20 -11 43 -18 65 -18c29 0 50 14 68 57l-190 531h119l124 -393l119 393h117zM410 709l-117 -117h-83l100 163z" />
    <glyph glyph-name="thorn" unicode="&#xfe;" horiz-adv-x="584" 
d="M541 258c0 -178 -100 -268 -208 -268c-76 0 -123 44 -155 90v-231h-113v873h113v-277c33 50 81 95 155 95c107 0 208 -91 208 -269v-13zM427 260v9c0 106 -56 170 -124 170s-127 -65 -127 -170v-10c0 -104 59 -169 127 -169s124 63 124 170z" />
    <glyph glyph-name="ydieresis" unicode="&#xff;" horiz-adv-x="526" 
d="M157 -154c-45 0 -78 10 -111 27l34 87c20 -11 43 -18 65 -18c29 0 50 14 68 57l-190 531h119l124 -393l119 393h117l-185 -541c-35 -102 -80 -143 -160 -143zM411 598h-112v111h112v-111zM227 598h-112v111h112v-111z" />
    <glyph glyph-name="dotlessi" unicode="&#x131;" horiz-adv-x="255" 
d="M184 0h-114v530h114v-530z" />
    <glyph glyph-name="Lslash" unicode="&#x141;" horiz-adv-x="549" 
d="M517 0h-414v283l-66 -21v108l66 20v310h114v-275l170 52v-108l-170 -51v-212h300v-106z" />
    <glyph glyph-name="lslash" unicode="&#x142;" horiz-adv-x="317" 
d="M214 334v-334h-112v296l-72 -25v108l72 25v318h112v-280l73 24v-108z" />
    <glyph glyph-name="OE" unicode="&#x152;" horiz-adv-x="936" 
d="M888 0h-506c-198 0 -332 140 -332 346v6c0 205 134 348 332 348h502v-105h-310v-190h273v-105h-273v-195h314v-105zM458 105v489h-79c-124 0 -208 -89 -208 -240v-7c0 -152 84 -242 208 -242h79z" />
    <glyph glyph-name="oe" unicode="&#x153;" horiz-adv-x="903" 
d="M281 -11c-133 0 -240 113 -240 270v8c0 157 107 272 243 272c80 0 145 -39 186 -104c37 65 99 104 174 104c143 0 220 -120 220 -278l-1 -40h-334c11 -91 65 -136 135 -136c51 0 88 18 128 55l51 -71c-47 -50 -104 -80 -185 -80s-150 39 -189 106
c-40 -65 -108 -106 -188 -106zM284 88c78 0 129 71 129 171v9c0 100 -54 172 -130 172c-78 0 -129 -71 -129 -171v-9c0 -100 55 -172 130 -172zM527 300h226c-6 85 -44 145 -111 145c-63 0 -106 -54 -115 -145z" />
    <glyph glyph-name="Scaron" unicode="&#x160;" horiz-adv-x="547" 
d="M280 -9c-90 0 -172 30 -242 88l52 92c60 -48 118 -75 189 -75c65 0 108 31 108 85c0 47 -23 73 -133 120c-130 55 -198 99 -198 215c0 114 91 193 216 193c84 0 150 -24 209 -68l-46 -97c-56 39 -107 60 -163 60c-62 0 -100 -34 -100 -80c0 -51 26 -74 138 -121
c133 -57 193 -108 193 -214c0 -123 -94 -198 -223 -198zM429 899l-103 -146h-102l-103 146h86l68 -76l69 76h85z" />
    <glyph glyph-name="scaron" unicode="&#x161;" horiz-adv-x="436" 
d="M398 148c0 -102 -79 -158 -180 -158c-63 0 -132 22 -188 63l38 86c51 -36 104 -56 151 -56c45 0 74 22 74 56v2c0 37 -43 53 -103 82c-73 34 -143 71 -143 159v2c0 96 75 154 174 154c55 0 114 -17 162 -47l-34 -88c-44 26 -90 42 -129 42c-42 0 -67 -21 -67 -51v-2
c0 -34 42 -51 103 -83c75 -37 142 -73 142 -159v-2zM375 740l-103 -146h-102l-103 146h86l68 -76l69 76h85z" />
    <glyph glyph-name="Ydieresis" unicode="&#x178;" horiz-adv-x="614" 
d="M599 700l-234 -420v-280h-116v279l-235 421h132l162 -302l163 302h128zM455 756h-112v111h112v-111zM271 756h-112v111h112v-111z" />
    <glyph glyph-name="Zcaron" unicode="&#x17d;" horiz-adv-x="594" 
d="M53 0v86l344 511h-332v103h477v-86l-344 -511h344v-103h-489zM455 899l-103 -146h-102l-103 146h86l68 -76l69 76h85z" />
    <glyph glyph-name="zcaron" unicode="&#x17e;" horiz-adv-x="480" 
d="M440 0h-397v78l259 358h-251v94h389v-78l-260 -358h260v-94zM401 740l-103 -146h-102l-103 146h86l68 -76l69 76h85z" />
    <glyph glyph-name="florin" unicode="&#x192;" horiz-adv-x="468" 
d="M439 596c-20 5 -41 10 -61 10c-42 0 -66 -23 -74 -74l-11 -78h114v-94h-128l-33 -220c-15 -104 -67 -145 -160 -145c-22 0 -39 2 -53 5v95c11 -2 23 -3 36 -3c37 0 59 19 66 64l29 204h-70v94h85l14 100c15 97 64 151 162 151c35 0 62 -5 84 -11v-98z" />
    <glyph glyph-name="circumflex" unicode="&#x2c6;" horiz-adv-x="502" 
d="M405 594h-86l-69 76l-69 -76h-84l103 146h102z" />
    <glyph glyph-name="caron" unicode="&#x2c7;" horiz-adv-x="502" 
d="M405 740l-103 -146h-102l-103 146h86l68 -76l69 76h85z" />
    <glyph glyph-name="breve" unicode="&#x2d8;" horiz-adv-x="502" 
d="M406 734c-6 -92 -70 -144 -155 -144s-149 52 -156 144h78c9 -38 33 -65 78 -65s69 27 78 65h77z" />
    <glyph glyph-name="dotaccent" unicode="&#x2d9;" horiz-adv-x="502" 
d="M310 592h-119v115h119v-115z" />
    <glyph glyph-name="ring" unicode="&#x2da;" horiz-adv-x="502" 
d="M360 700v-3c0 -59 -51 -108 -109 -108c-59 0 -110 49 -110 108v3c0 60 51 109 110 109c58 0 109 -49 109 -109zM308 698v2c0 32 -25 60 -57 60c-33 0 -58 -28 -58 -60v-2c0 -31 26 -60 58 -60s57 29 57 60z" />
    <glyph glyph-name="ogonek" unicode="&#x2db;" horiz-adv-x="502" 
d="M364 -159c-121 -4 -184 37 -184 107c0 23 7 46 16 64h78c-4 -15 -6 -29 -6 -45c0 -41 26 -67 96 -71v-55z" />
    <glyph glyph-name="tilde" unicode="&#x2dc;" horiz-adv-x="502" 
d="M422 708c-17 -76 -49 -116 -101 -116c-31 0 -57 13 -81 24c-19 10 -35 18 -50 18c-25 0 -35 -16 -48 -49l-63 19c18 77 50 116 101 116c30 0 56 -11 79 -23c20 -11 37 -18 53 -18c24 0 35 15 47 49z" />
    <glyph glyph-name="hungarumlaut" unicode="&#x2dd;" horiz-adv-x="502" 
d="M437 710l-117 -117h-80l100 163zM265 710l-115 -117h-81l99 163z" />
    <glyph glyph-name="Delta" unicode="&#x2206;" horiz-adv-x="583" 
d="M22 0l251 701h112l251 -701h-614zM180 104h297l-148 435z" />
    <glyph glyph-name="pi" unicode="&#x3c0;" 
d="M0 0v700h500v-700h-500zM81 49h339l-170 255zM49 96l171 254l-171 254v-508zM450 96v508l-171 -254zM250 395l170 255h-339z" />
    <glyph glyph-name="afii10023" unicode="&#x401;" horiz-adv-x="568" 
d="M77 0v700h440v-105h-325v-190h288v-105h-288v-195h329v-105h-444zM442 757h-112v111h112v-111zM258 757h-112v111h112v-111z" />
    <glyph glyph-name="afii10051" unicode="&#x402;" horiz-adv-x="746" 
d="M483 -4c-35 1 -70 8 -93 16l12 97c15 -5 33 -8 50 -8c58 0 114 30 114 130c0 92 -46 134 -116 134c-59 0 -105 -22 -144 -56v-309h-116v594h-160v106h491v-106h-215v-183c47 34 107 57 173 57c126 0 205 -87 205 -242c0 -152 -82 -230 -201 -230z" />
    <glyph glyph-name="afii10052" unicode="&#x403;" horiz-adv-x="491" 
d="M192 594v-594h-115v700h402v-106h-287zM404 869l-117 -117h-83l100 163z" />
    <glyph glyph-name="afii10053" unicode="&#x404;" horiz-adv-x="614" 
d="M357 -10c-176 0 -307 142 -307 356v8c0 209 132 355 315 355c98 0 154 -36 208 -81l-49 -88c-42 34 -86 62 -140 62c-108 0 -192 -72 -211 -199h258v-102h-259c17 -130 99 -204 208 -204c57 0 102 27 149 67l55 -85c-58 -58 -125 -89 -227 -89z" />
    <glyph glyph-name="afii10054" unicode="&#x405;" horiz-adv-x="547" 
d="M280 -9c-90 0 -172 30 -242 88l52 92c60 -48 118 -75 189 -75c65 0 108 31 108 85c0 47 -23 73 -133 120c-130 55 -198 99 -198 215c0 114 91 193 216 193c84 0 150 -24 209 -68l-46 -97c-56 39 -107 60 -163 60c-62 0 -100 -34 -100 -80c0 -51 26 -74 138 -121
c133 -57 193 -108 193 -214c0 -123 -94 -198 -223 -198z" />
    <glyph glyph-name="afii10055" unicode="&#x406;" horiz-adv-x="281" 
d="M82 0v700h116v-700h-116z" />
    <glyph glyph-name="afii10056" unicode="&#x407;" horiz-adv-x="281" 
d="M82 0v700h116v-700h-116zM289 757h-112v111h112v-111zM105 757h-112v111h112v-111z" />
    <glyph glyph-name="afii10057" unicode="&#x408;" horiz-adv-x="475" 
d="M198 -9c-84 0 -139 36 -177 81l56 89c33 -40 69 -61 115 -61c58 0 97 38 97 118v482h119v-486c0 -150 -87 -223 -210 -223z" />
    <glyph glyph-name="afii10058" unicode="&#x409;" horiz-adv-x="980" 
d="M471 0v594h-197v-119c0 -401 -71 -482 -200 -482c-25 0 -56 6 -72 10l8 99c8 -3 23 -6 36 -6c62 0 119 38 119 402v202h421v-247h123c147 0 241 -84 241 -224c0 -149 -109 -229 -249 -229h-230zM586 105h118c80 0 130 47 130 121c0 81 -51 122 -129 122h-119v-243z" />
    <glyph glyph-name="afii10059" unicode="&#x40a;" horiz-adv-x="993" 
d="M582 700v-267h150c141 0 231 -80 231 -214c0 -142 -105 -219 -239 -219h-257v325h-275v-325h-115v700h115v-267h275v267h115zM582 105h145c74 0 120 43 120 111c0 74 -47 112 -119 112h-146v-223z" />
    <glyph glyph-name="afii10060" unicode="&#x40b;" horiz-adv-x="746" 
d="M306 594v-178c47 32 107 56 173 56c116 0 205 -69 205 -226v-246h-115v226c0 92 -42 133 -112 133c-61 0 -107 -15 -151 -54v-305h-115v594h-161v106h491v-106h-215z" />
    <glyph glyph-name="afii10061" unicode="&#x40c;" horiz-adv-x="627" 
d="M77 0v700h115v-343l270 343h140l-243 -301l254 -399h-138l-196 306l-87 -104v-202h-115zM453 869l-117 -117h-83l100 163z" />
    <glyph glyph-name="afii10062" unicode="&#x40e;" horiz-adv-x="625" 
d="M178 -10c-43 0 -79 10 -111 25l33 93c22 -11 45 -16 69 -16c32 0 65 26 94 76l-244 532h128l176 -396l159 396h122l-232 -551c-47 -111 -102 -159 -194 -159zM323 748c-76 0 -133 49 -146 133l72 14c10 -40 33 -67 74 -67s64 27 74 67l72 -14c-13 -84 -69 -133 -146 -133
z" />
    <glyph glyph-name="afii10145" unicode="&#x40f;" horiz-adv-x="655" 
d="M77 0v700h116v-595h270v595h115v-700h-194v-136h-111v136h-196z" />
    <glyph glyph-name="afii10017" unicode="&#x410;" horiz-adv-x="674" 
d="M25 0l256 704h112l256 -704h-120l-59 165h-270l-59 -165h-116zM235 268h199l-99 281z" />
    <glyph glyph-name="afii10018" unicode="&#x411;" horiz-adv-x="615" 
d="M192 594v-171h150c141 0 231 -78 231 -209c0 -142 -105 -214 -239 -214h-257v700h448v-106h-333zM192 105h145c74 0 120 38 120 106c0 71 -47 107 -119 107h-146v-213z" />
    <glyph glyph-name="afii10019" unicode="&#x412;" horiz-adv-x="623" 
d="M77 0v700h249c133 0 225 -65 225 -181c0 -87 -49 -132 -103 -157c77 -27 133 -74 133 -167c0 -127 -100 -195 -249 -195h-255zM190 103h146c80 0 130 35 130 100c0 64 -47 101 -136 101h-140v-201zM190 402h121c76 0 125 33 125 99c0 62 -43 96 -118 96h-128v-195z" />
    <glyph glyph-name="afii10020" unicode="&#x413;" horiz-adv-x="491" 
d="M192 594v-594h-115v700h402v-106h-287z" />
    <glyph glyph-name="afii10021" unicode="&#x414;" horiz-adv-x="663" 
d="M455 594h-199c0 -212 -15 -370 -70 -488h269v488zM535 0h-417l-12 -136h-99v242h59c61 133 80 299 80 594h425v-594h75l-15 -242h-96v136z" />
    <glyph glyph-name="afii10022" unicode="&#x415;" horiz-adv-x="568" 
d="M77 0v700h440v-105h-325v-190h288v-105h-288v-195h329v-105h-444z" />
    <glyph glyph-name="afii10024" unicode="&#x416;" horiz-adv-x="939" 
d="M527 0h-115v197l-84 115l-179 -312h-137l235 396l-222 304h136l251 -354v354h115v-354l251 354h134l-222 -304l236 -396h-136l-180 312l-83 -115v-197z" />
    <glyph glyph-name="afii10025" unicode="&#x417;" horiz-adv-x="543" 
d="M266 -10c-108 0 -181 29 -244 84l51 92c49 -42 106 -70 172 -70s141 34 141 105c0 87 -72 106 -176 107h-31v96h34c109 0 160 32 160 108c0 60 -59 93 -127 93c-62 0 -110 -23 -155 -61l-46 83c60 52 123 82 233 82c123 0 209 -77 209 -181c0 -90 -54 -139 -115 -165
c74 -23 129 -76 129 -168c0 -121 -94 -205 -235 -205z" />
    <glyph glyph-name="afii10026" unicode="&#x418;" horiz-adv-x="669" 
d="M77 0v700h114v-366c0 -42 -1 -85 -1 -128l294 494h108v-700h-113v367c0 42 0 85 1 127l-295 -494h-108z" />
    <glyph glyph-name="afii10027" unicode="&#x419;" horiz-adv-x="669" 
d="M77 0v700h114v-366c0 -42 -1 -85 -1 -128l294 494h108v-700h-113v367c0 42 0 85 1 127l-295 -494h-108zM339 748c-76 0 -133 49 -146 133l72 14c10 -40 33 -67 74 -67s64 27 74 67l72 -14c-13 -84 -69 -133 -146 -133z" />
    <glyph glyph-name="afii10028" unicode="&#x41a;" horiz-adv-x="627" 
d="M77 0v700h115v-343l270 343h140l-243 -301l254 -399h-138l-196 306l-87 -104v-202h-115z" />
    <glyph glyph-name="afii10029" unicode="&#x41b;" horiz-adv-x="662" 
d="M74 -7c-25 0 -56 6 -72 10l8 99c8 -3 23 -6 36 -6c62 0 119 38 119 402v202h421v-700h-115v594h-197v-119c0 -401 -71 -482 -200 -482z" />
    <glyph glyph-name="afii10030" unicode="&#x41c;" horiz-adv-x="753" 
d="M77 0v700h121l178 -321l179 321h122v-700h-114v495l-186 -324h-3l-185 322v-493h-112z" />
    <glyph glyph-name="afii10031" unicode="&#x41d;" horiz-adv-x="659" 
d="M77 0v700h115v-294h275v294h115v-700h-115v298h-275v-298h-115z" />
    <glyph glyph-name="afii10032" unicode="&#x41e;" horiz-adv-x="720" 
d="M359 -11c-182 0 -309 148 -309 355v10c0 208 128 357 311 357c181 0 308 -148 308 -355v-10c0 -208 -128 -357 -310 -357zM361 96c111 0 189 97 189 248v10c0 152 -80 250 -191 250c-110 0 -188 -97 -188 -248v-10c0 -152 79 -250 190 -250z" />
    <glyph glyph-name="afii10033" unicode="&#x41f;" horiz-adv-x="654" 
d="M77 0v700h500v-700h-115v594h-270v-594h-115z" />
    <glyph glyph-name="afii10034" unicode="&#x420;" horiz-adv-x="582" 
d="M77 0v700h223c153 0 251 -88 251 -234c0 -156 -113 -239 -259 -239h-100v-227h-115zM192 332h103c86 0 140 51 140 131c0 88 -55 132 -139 132h-104v-263z" />
    <glyph glyph-name="afii10035" unicode="&#x421;" horiz-adv-x="617" 
d="M356 -10c-174 0 -306 143 -306 355v9c0 211 132 356 312 356c101 0 161 -33 214 -81l-55 -94c-46 40 -94 67 -157 67c-111 0 -193 -96 -193 -247v-9c0 -152 81 -248 194 -248c66 0 111 26 161 70l55 -85c-58 -57 -123 -93 -225 -93z" />
    <glyph glyph-name="afii10036" unicode="&#x422;" horiz-adv-x="549" 
d="M217 0v592h-184v108h483v-108h-183v-592h-116z" />
    <glyph glyph-name="afii10037" unicode="&#x423;" horiz-adv-x="625" 
d="M178 -10c-43 0 -79 10 -111 25l33 93c22 -11 45 -16 69 -16c32 0 65 26 94 76l-244 532h128l176 -396l159 396h122l-232 -551c-47 -111 -102 -159 -194 -159z" />
    <glyph glyph-name="afii10038" unicode="&#x424;" horiz-adv-x="810" 
d="M347 -21v77c-194 3 -309 124 -309 294v12c0 173 121 288 309 290v68h115v-68c187 -2 309 -117 309 -291v-11c0 -170 -115 -291 -309 -294v-77h-115zM462 160c119 0 191 76 191 192v8c0 113 -71 186 -191 188v-388zM347 160v388c-119 -2 -192 -75 -192 -188v-12
c0 -114 74 -187 192 -188z" />
    <glyph glyph-name="afii10039" unicode="&#x425;" horiz-adv-x="625" 
d="M30 0l214 358l-205 342h132l143 -243l143 243h129l-204 -341l213 -359h-132l-152 260l-152 -260h-129z" />
    <glyph glyph-name="afii10040" unicode="&#x426;" horiz-adv-x="670" 
d="M543 -136v136h-466v700h115v-594h271v594h115v-594h76l-15 -242h-96z" />
    <glyph glyph-name="afii10041" unicode="&#x427;" horiz-adv-x="610" 
d="M417 376v324h116v-700h-116v272c-41 -22 -108 -49 -167 -49c-118 0 -202 64 -202 210v267h115v-219c0 -106 41 -150 113 -150c53 0 106 21 141 45z" />
    <glyph glyph-name="afii10042" unicode="&#x428;" horiz-adv-x="957" 
d="M880 700v-700h-803v700h115v-596h229v596h116v-596h228v596h115z" />
    <glyph glyph-name="afii10043" unicode="&#x429;" horiz-adv-x="971" 
d="M844 -137v137h-767v700h115v-594h229v594h115v-594h229v594h115v-594h75l-15 -243h-96z" />
    <glyph glyph-name="afii10044" unicode="&#x42a;" horiz-adv-x="682" 
d="M403 0h-231v594h-144v106h260v-247h123c147 0 241 -84 241 -224c0 -149 -109 -229 -249 -229zM288 105h118c80 0 130 47 130 121c0 81 -51 122 -129 122h-119v-243z" />
    <glyph glyph-name="afii10045" unicode="&#x42b;" horiz-adv-x="815" 
d="M192 700v-247h123c147 0 241 -84 241 -224c0 -149 -109 -229 -249 -229h-230v700h115zM192 105h118c80 0 130 47 130 121c0 81 -51 122 -129 122h-119v-243zM623 0v700h115v-700h-115z" />
    <glyph glyph-name="afii10046" unicode="&#x42c;" horiz-adv-x="586" 
d="M192 700v-247h123c147 0 241 -84 241 -224c0 -149 -109 -229 -249 -229h-230v700h115zM192 105h118c80 0 130 47 130 121c0 81 -51 122 -129 122h-119v-243z" />
    <glyph glyph-name="afii10047" unicode="&#x42d;" horiz-adv-x="614" 
d="M257 -10c-102 0 -169 31 -227 89l55 85c47 -40 92 -67 149 -67c109 0 191 74 208 204h-259v102h258c-19 127 -103 199 -211 199c-54 0 -98 -28 -140 -62l-49 88c54 45 110 81 208 81c183 0 315 -146 315 -355v-8c0 -214 -131 -356 -307 -356z" />
    <glyph glyph-name="afii10048" unicode="&#x42e;" horiz-adv-x="918" 
d="M577 -11c-158 0 -270 123 -287 310h-97v-299h-116v700h116v-296h98c18 184 131 307 287 307c172 0 290 -146 290 -357v-9c0 -210 -119 -356 -291 -356zM578 93c101 0 171 97 171 252v9c0 154 -71 251 -172 251s-170 -95 -170 -251v-9c0 -154 71 -252 171 -252z" />
    <glyph glyph-name="afii10049" unicode="&#x42f;" horiz-adv-x="624" 
d="M547 700v-700h-115v245c-39 0 -82 0 -120 1l-145 -246h-138l165 270c-85 29 -145 97 -145 206c0 160 100 224 265 224h233zM300 347h132v247h-105c-132 0 -161 -38 -161 -124c0 -78 53 -123 134 -123z" />
    <glyph glyph-name="afii10065" unicode="&#x430;" horiz-adv-x="516" 
d="M198 -10c-88 0 -164 59 -164 161v6c0 114 78 170 190 170c51 0 87 -8 122 -21v21c0 71 -40 109 -116 109c-51 0 -90 -12 -133 -30l-22 93c50 23 100 37 172 37c139 0 210 -74 210 -207v-329h-111v65c-32 -44 -79 -75 -148 -75zM232 75c66 0 115 42 115 102v54
c-25 11 -60 19 -99 19c-65 0 -103 -32 -103 -87v-6c0 -53 37 -82 87 -82z" />
    <glyph glyph-name="afii10066" unicode="&#x431;" horiz-adv-x="571" 
d="M289 -11c-147 0 -239 106 -239 292v13c0 171 15 331 179 368l255 58l20 -93l-247 -59c-89 -21 -116 -74 -120 -143c23 42 78 91 172 91c119 0 220 -105 220 -258v-3c0 -153 -91 -266 -240 -266zM290 87c76 0 126 69 126 166v4c0 98 -54 167 -127 167
c-74 0 -125 -69 -125 -167v-4c0 -97 54 -166 126 -166z" />
    <glyph glyph-name="afii10067" unicode="&#x432;" horiz-adv-x="521" 
d="M65 530h222c100 0 170 -49 170 -137c0 -66 -37 -100 -78 -119c58 -20 101 -56 101 -126c0 -97 -76 -148 -189 -148h-226v530zM178 90h96c56 0 91 24 91 70c0 44 -33 70 -95 70h-92v-140zM178 310h85c51 0 84 22 84 67c0 41 -29 64 -80 64h-89v-131z" />
    <glyph glyph-name="afii10068" unicode="&#x433;" horiz-adv-x="411" 
d="M65 0v530h328v-97h-215v-433h-113z" />
    <glyph glyph-name="afii10069" unicode="&#x434;" horiz-adv-x="565" 
d="M367 433h-145c0 -142 -9 -251 -47 -336h192v336zM435 0h-319l-8 -116h-97v213h50c39 86 54 210 54 362v71h364v-433h65l-12 -213h-97v116z" />
    <glyph glyph-name="afii10070" unicode="&#x435;" horiz-adv-x="529" 
d="M284 -11c-136 0 -244 104 -244 270v8c0 159 97 272 228 272c144 0 221 -120 221 -278c0 -13 0 -27 -1 -40h-334c11 -91 66 -136 134 -136c53 0 89 18 128 55l53 -71c-47 -50 -104 -80 -185 -80zM153 300h225c-5 85 -44 145 -110 145c-62 0 -107 -54 -115 -145z" />
    <glyph glyph-name="afii10072" unicode="&#x436;" horiz-adv-x="766" 
d="M439 0h-112v146l-62 86l-132 -232h-124l177 302l-171 228h129l183 -255v255h112v-255l183 255h129l-171 -228l177 -302h-125l-132 232l-61 -86v-146z" />
    <glyph glyph-name="afii10073" unicode="&#x437;" horiz-adv-x="448" 
d="M214 -11c-78 0 -143 22 -192 62l41 89c35 -26 80 -50 129 -50c54 0 103 19 103 68c0 53 -32 70 -127 70h-25v83h25c77 0 115 15 115 74c0 39 -31 58 -83 58c-44 0 -93 -17 -125 -43l-38 79c45 37 111 60 182 60c104 0 178 -56 178 -139c0 -65 -38 -102 -83 -122
c55 -19 92 -60 92 -129c0 -92 -78 -160 -192 -160z" />
    <glyph glyph-name="afii10074" unicode="&#x438;" horiz-adv-x="560" 
d="M495 530v-530h-110v348l-212 -348h-108v530h111v-346l210 346h109z" />
    <glyph glyph-name="afii10075" unicode="&#x439;" horiz-adv-x="560" 
d="M495 530v-530h-110v348l-212 -348h-108v530h111v-346l210 346h109zM284 588c-75 0 -131 48 -142 132l68 12c10 -40 34 -67 74 -67s65 27 74 67l68 -12c-11 -84 -66 -132 -142 -132z" />
    <glyph glyph-name="afii10076" unicode="&#x43a;" horiz-adv-x="522" 
d="M178 136v-136h-113v530h113v-248l191 248h130l-175 -223l188 -307h-131l-133 220z" />
    <glyph glyph-name="afii10077" unicode="&#x43b;" horiz-adv-x="550" 
d="M37 92c54 0 90 36 90 438h357v-530h-113v433h-138c0 -382 -58 -438 -169 -438c-18 0 -49 4 -64 6l6 95c7 -2 23 -4 31 -4z" />
    <glyph glyph-name="afii10078" unicode="&#x43c;" horiz-adv-x="636" 
d="M318 293l140 237h113v-530h-113v352l-141 -233h-1l-140 232v-351h-111v530h114z" />
    <glyph glyph-name="afii10079" unicode="&#x43d;" horiz-adv-x="553" 
d="M488 530v-530h-113v218h-197v-218h-113v530h113v-216h197v216h113z" />
    <glyph glyph-name="afii10080" unicode="&#x43e;" horiz-adv-x="573" 
d="M285 -11c-140 0 -244 113 -244 270v9c0 156 105 271 246 271c140 0 244 -113 244 -270v-9c0 -156 -105 -271 -246 -271zM287 88c79 0 131 72 131 170v10c0 100 -55 172 -133 172c-79 0 -131 -71 -131 -170v-10c0 -99 56 -172 133 -172z" />
    <glyph glyph-name="afii10081" unicode="&#x43f;" horiz-adv-x="548" 
d="M483 530v-530h-112v433h-193v-433h-113v530h418z" />
    <glyph glyph-name="afii10082" unicode="&#x440;" horiz-adv-x="584" 
d="M65 -151v681h113v-85c33 51 80 95 155 95c108 0 208 -90 208 -268v-14c0 -178 -100 -268 -208 -268c-76 0 -122 44 -155 90v-231h-113zM303 90c69 0 125 63 125 169v11c0 105 -57 170 -125 170s-126 -66 -126 -170v-11c0 -104 58 -169 126 -169z" />
    <glyph glyph-name="afii10083" unicode="&#x441;" horiz-adv-x="486" 
d="M281 -11c-138 0 -240 112 -240 270v9c0 158 104 271 242 271c79 0 127 -27 168 -68l-52 -86c-32 31 -64 53 -114 53c-74 0 -130 -67 -130 -168v-10c0 -103 56 -169 135 -169c45 0 81 21 114 52l50 -79c-43 -44 -91 -75 -173 -75z" />
    <glyph glyph-name="afii10084" unicode="&#x442;" horiz-adv-x="435" 
d="M162 0v433h-146v97h403v-97h-145v-433h-112z" />
    <glyph glyph-name="afii10085" unicode="&#x443;" horiz-adv-x="526" 
d="M157 -154c-45 0 -78 10 -111 27l34 87c20 -11 43 -18 65 -18c29 0 50 14 68 57l-190 531h119l124 -393l119 393h117l-185 -541c-35 -102 -80 -143 -160 -143z" />
    <glyph glyph-name="afii10086" unicode="&#x444;" horiz-adv-x="784" 
d="M336 -151v191c-23 -27 -59 -48 -109 -48c-105 0 -185 91 -185 278c0 175 78 267 186 267c49 0 85 -26 108 -54v217h112v-217c23 28 59 54 108 54c108 0 186 -92 186 -268v-6c0 -181 -81 -271 -185 -271c-51 0 -86 21 -109 48v-191h-112zM522 89c69 0 106 63 106 174
c0 108 -39 175 -106 175c-31 0 -55 -18 -74 -45v-266c20 -24 44 -38 74 -38zM263 89c30 0 53 14 73 38v266c-21 31 -42 45 -73 45c-67 0 -107 -67 -107 -175c0 -110 37 -174 107 -174z" />
    <glyph glyph-name="afii10087" unicode="&#x445;" horiz-adv-x="512" 
d="M26 0l166 270l-160 260h122l103 -175l104 175h118l-160 -258l167 -272h-122l-110 186l-109 -186h-119z" />
    <glyph glyph-name="afii10088" unicode="&#x446;" horiz-adv-x="566" 
d="M437 -116v116h-372v530h113v-433h193v433h112v-433h63l-11 -213h-98z" />
    <glyph glyph-name="afii10089" unicode="&#x447;" horiz-adv-x="524" 
d="M345 0v201c-29 -17 -86 -36 -137 -36c-91 0 -157 52 -157 160v205h113v-176c0 -57 30 -92 76 -92c38 0 77 13 105 31v237h112v-530h-112z" />
    <glyph glyph-name="afii10090" unicode="&#x448;" horiz-adv-x="800" 
d="M735 530v-530h-670v530h113v-433h166v433h112v-433h167v433h112z" />
    <glyph glyph-name="afii10091" unicode="&#x449;" horiz-adv-x="819" 
d="M691 -116v116h-626v530h113v-433h166v433h112v-433h167v433h112v-433h64l-10 -213h-98z" />
    <glyph glyph-name="afii10092" unicode="&#x44a;" horiz-adv-x="561" 
d="M336 0h-205v433h-121v97h235v-187h89c116 0 199 -52 199 -167c0 -120 -80 -176 -197 -176zM245 91h87c54 0 88 32 88 81c0 55 -35 82 -87 82h-88v-163z" />
    <glyph glyph-name="afii10093" unicode="&#x44b;" horiz-adv-x="704" 
d="M527 0v530h112v-530h-112zM65 0v530h113v-187h89c116 0 199 -52 199 -167c0 -120 -80 -176 -197 -176h-204zM178 91h87c54 0 88 32 88 81c0 55 -35 82 -87 82h-88v-163z" />
    <glyph glyph-name="afii10094" unicode="&#x44c;" horiz-adv-x="492" 
d="M65 0v530h113v-187h89c116 0 199 -52 199 -167c0 -120 -80 -176 -197 -176h-204zM178 91h87c54 0 88 32 88 81c0 55 -35 82 -87 82h-88v-163z" />
    <glyph glyph-name="afii10095" unicode="&#x44d;" horiz-adv-x="481" 
d="M200 -11c-82 0 -132 29 -176 74l51 77c31 -30 66 -51 103 -51c75 0 134 50 147 133h-175v86h175c-12 75 -61 127 -123 131c-52 0 -91 -16 -125 -49l-45 80c36 35 91 67 162 67c142 0 246 -111 246 -270v-8c0 -158 -103 -270 -240 -270z" />
    <glyph glyph-name="afii10096" unicode="&#x44e;" horiz-adv-x="760" 
d="M486 -11c-125 0 -213 92 -229 227h-79v-216h-113v530h113v-217h79c17 133 106 225 230 225c139 0 232 -114 232 -271v-7c0 -156 -94 -271 -233 -271zM487 87c72 0 120 72 120 176c0 105 -50 176 -121 176c-74 0 -119 -71 -119 -176c0 -104 47 -176 120 -176z" />
    <glyph glyph-name="afii10097" unicode="&#x44f;" horiz-adv-x="523" 
d="M458 530v-530h-112v181h-86l-103 -181h-135l127 203c-63 23 -107 75 -107 154c0 107 60 173 194 173h222zM246 268h100v170h-82c-85 0 -110 -26 -110 -85c0 -54 36 -85 92 -85z" />
    <glyph glyph-name="afii10071" unicode="&#x451;" horiz-adv-x="529" 
d="M284 -11c-136 0 -244 104 -244 270v8c0 159 97 272 228 272c144 0 221 -120 221 -278c0 -13 0 -27 -1 -40h-334c11 -91 66 -136 134 -136c53 0 89 18 128 55l53 -71c-47 -50 -104 -80 -185 -80zM153 300h225c-5 85 -44 145 -110 145c-62 0 -107 -54 -115 -145zM412 598
h-112v111h112v-111zM228 598h-112v111h112v-111z" />
    <glyph glyph-name="afii10099" unicode="&#x452;" horiz-adv-x="548" 
d="M315 -6c-44 0 -65 7 -86 14l15 89c11 -4 21 -6 34 -6c58 0 96 41 96 109v103c0 73 -34 115 -94 115s-102 -45 -102 -118v-300h-113v564h-61v86h61v72h113v-72h162v-86h-162v-132c31 47 73 88 145 88c105 0 165 -74 165 -186v-161c0 -111 -67 -179 -173 -179z" />
    <glyph glyph-name="afii10100" unicode="&#x453;" horiz-adv-x="411" 
d="M65 0v530h328v-97h-215v-433h-113zM346 710l-117 -117h-83l100 163z" />
    <glyph glyph-name="afii10101" unicode="&#x454;" horiz-adv-x="481" 
d="M281 -11c-137 0 -240 112 -240 270v8c0 159 104 270 246 270c71 0 126 -32 162 -67l-45 -80c-34 33 -73 49 -125 49c-62 -4 -111 -56 -123 -131h175v-86h-175c13 -83 72 -133 147 -133c37 0 72 21 103 51l51 -77c-44 -45 -94 -74 -176 -74z" />
    <glyph glyph-name="afii10102" unicode="&#x455;" horiz-adv-x="436" 
d="M218 -10c-63 0 -132 22 -188 63l38 86c51 -36 104 -56 151 -56c45 0 74 22 74 58c0 37 -43 53 -103 82c-73 34 -143 71 -143 161c0 96 75 154 174 154c55 0 114 -17 162 -47l-34 -88c-44 26 -90 42 -129 42c-42 0 -67 -21 -67 -53c0 -34 42 -51 103 -82
c75 -38 142 -74 142 -162c0 -102 -79 -158 -180 -158z" />
    <glyph glyph-name="afii10103" unicode="&#x456;" horiz-adv-x="255" 
d="M70 0v530h114v-530h-114zM68 607v111h120v-111h-120z" />
    <glyph glyph-name="afii10104" unicode="&#x457;" horiz-adv-x="255" 
d="M276 598h-112v111h112v-111zM92 598h-112v111h112v-111zM184 0h-114v530h114v-530z" />
    <glyph glyph-name="afii10105" unicode="&#x458;" horiz-adv-x="257" 
d="M42 -154c-22 0 -35 2 -52 5v91c9 -2 18 -3 27 -3c34 0 55 19 55 63v528h113v-537c0 -99 -51 -147 -143 -147zM68 607v111h121v-111h-121z" />
    <glyph glyph-name="afii10106" unicode="&#x459;" horiz-adv-x="799" 
d="M372 0v433h-139c0 -382 -58 -438 -169 -438c-18 0 -49 4 -64 6l6 95c7 -2 23 -4 31 -4c54 0 90 36 90 438h358v-187h89c116 0 199 -52 199 -167c0 -120 -80 -176 -197 -176h-204zM485 91h87c54 0 88 32 88 81c0 55 -35 82 -87 82h-88v-163z" />
    <glyph glyph-name="afii10107" unicode="&#x45a;" horiz-adv-x="802" 
d="M375 0v237h-197v-237h-113v530h113v-197h197v197h113v-197h89c116 0 199 -47 199 -162c0 -120 -80 -171 -197 -171h-204zM488 91h87c54 0 88 27 88 76c0 55 -35 77 -87 77h-88v-153z" />
    <glyph glyph-name="afii10108" unicode="&#x45b;" horiz-adv-x="548" 
d="M4 650h61v72h113v-72h162v-86h-162v-132c31 47 73 88 145 88c105 0 165 -74 165 -186v-334h-114v303c0 73 -34 115 -94 115s-102 -45 -102 -118v-300h-113v564h-61v86z" />
    <glyph glyph-name="afii10109" unicode="&#x45c;" horiz-adv-x="522" 
d="M178 136v-136h-113v530h113v-248l191 248h130l-175 -223l188 -307h-131l-133 220zM401 710l-117 -117h-83l100 163z" />
    <glyph glyph-name="afii10110" unicode="&#x45e;" horiz-adv-x="526" 
d="M157 -154c-45 0 -78 10 -111 27l34 87c20 -11 43 -18 65 -18c29 0 50 14 68 57l-190 531h119l124 -393l119 393h117l-185 -541c-35 -102 -80 -143 -160 -143zM266 588c-75 0 -131 48 -142 132l68 12c10 -40 34 -67 74 -67s65 27 74 67l68 -12c-11 -84 -66 -132 -142 -132
z" />
    <glyph glyph-name="afii10193" unicode="&#x45f;" horiz-adv-x="550" 
d="M485 530v-530h-155v-116h-107v116h-158v530h114v-433h193v433h113z" />
    <glyph glyph-name="afii10050" unicode="&#x490;" horiz-adv-x="491" 
d="M479 594h-287v-594h-115v700h291v136h96z" />
    <glyph glyph-name="afii10098" unicode="&#x491;" horiz-adv-x="411" 
d="M393 433h-215v-433h-113v530h219v116h98z" />
    <glyph glyph-name="endash" unicode="&#x2013;" horiz-adv-x="502" 
d="M450 252h-399v108h399v-108z" />
    <glyph glyph-name="emdash" unicode="&#x2014;" horiz-adv-x="823" 
d="M771 252h-720v108h720v-108z" />
    <glyph glyph-name="quoteleft" unicode="&#x2018;" horiz-adv-x="250" 
d="M215 656c-61 -13 -87 -49 -82 -97h51v-133h-127v112c0 106 49 155 146 166z" />
    <glyph glyph-name="quoteright" unicode="&#x2019;" horiz-adv-x="250" 
d="M194 589c0 -107 -50 -156 -147 -166l-12 48c62 13 87 48 82 97h-51v132h128v-111z" />
    <glyph glyph-name="quotesinglbase" unicode="&#x201a;" horiz-adv-x="256" 
d="M193 21c0 -106 -50 -155 -149 -166l-11 49c63 13 88 48 84 96h-52v132h128v-111z" />
    <glyph glyph-name="quotedblleft" unicode="&#x201c;" horiz-adv-x="464" 
d="M429 656c-62 -13 -87 -49 -82 -97h51v-133h-128v112c0 106 50 155 147 166zM215 656c-61 -13 -87 -49 -82 -97h51v-133h-127v112c0 106 49 155 146 166z" />
    <glyph glyph-name="quotedblright" unicode="&#x201d;" horiz-adv-x="464" 
d="M408 589c0 -107 -50 -156 -147 -166l-12 48c62 13 87 48 82 97h-51v132h128v-111zM194 589c0 -107 -50 -156 -147 -166l-12 48c62 13 87 48 82 97h-51v132h128v-111z" />
    <glyph glyph-name="quotedblbase" unicode="&#x201e;" horiz-adv-x="472" 
d="M409 21c0 -106 -50 -155 -149 -166l-12 49c64 13 89 48 85 96h-52v132h128v-111zM193 21c0 -106 -50 -155 -149 -166l-11 49c63 13 88 48 84 96h-52v132h128v-111z" />
    <glyph glyph-name="dagger" unicode="&#x2020;" horiz-adv-x="359" 
d="M205 513l10 -275h-71l9 275l-108 -9v71l107 -11l-12 136h78l-12 -136l107 11v-71z" />
    <glyph glyph-name="daggerdbl" unicode="&#x2021;" horiz-adv-x="379" 
d="M323 125l-107 9l12 -134h-78l12 134l-107 -9v71l107 -11l-9 165l9 163l-107 -9v71l107 -11l-12 136h79l-13 -136l107 11v-71l-108 9l10 -163l-10 -165l108 11v-71z" />
    <glyph glyph-name="bullet" unicode="&#x2022;" horiz-adv-x="447" 
d="M223 212c-72 0 -129 57 -129 138v5c0 81 57 138 129 138s130 -57 130 -138v-5c0 -81 -58 -138 -130 -138z" />
    <glyph glyph-name="ellipsis" unicode="&#x2026;" horiz-adv-x="752" 
d="M689 0h-125v131h125v-131zM439 0h-126v131h126v-131zM188 0h-125v131h125v-131z" />
    <glyph glyph-name="perthousand" unicode="&#x2030;" horiz-adv-x="1101" 
d="M339 531v-5c0 -101 -62 -178 -150 -178c-87 0 -147 76 -147 176v6c0 100 61 177 149 177c87 0 148 -75 148 -176zM563 700h88l-454 -700h-88zM1059 176v-6c0 -101 -61 -177 -150 -177c-87 0 -146 75 -146 176v5c0 100 60 177 148 177c87 0 148 -75 148 -175zM718 176v-6
c0 -101 -61 -177 -150 -177c-87 0 -147 75 -147 176v5c0 100 61 177 149 177c87 0 148 -75 148 -175zM255 524v6c0 62 -28 103 -66 103c-40 0 -65 -42 -65 -102v-5c0 -63 29 -104 67 -104c40 0 64 42 64 102zM976 169v5c0 62 -28 103 -67 103s-64 -41 -64 -102v-5
c0 -62 28 -104 66 -104c40 0 65 42 65 103zM634 169v5c0 62 -27 103 -66 103s-65 -41 -65 -102v-5c0 -62 28 -104 67 -104s64 42 64 103z" />
    <glyph glyph-name="guilsinglleft" unicode="&#x2039;" horiz-adv-x="326" 
d="M281 87l-88 -46l-153 219v8l153 220l88 -45l-125 -178z" />
    <glyph glyph-name="guilsinglright" unicode="&#x203a;" horiz-adv-x="326" 
d="M287 260l-155 -219l-88 45l127 178l-126 177l87 47l155 -220v-8z" />
    <glyph glyph-name="fraction" unicode="&#x2044;" horiz-adv-x="435" 
d="M367 754h103l-421 -843h-103z" />
    <glyph glyph-name="Euro" unicode="&#x20ac;" horiz-adv-x="616" 
d="M577 93c-48 -61 -105 -104 -195 -104c-131 0 -226 90 -259 239h-82v81h71c-1 12 -1 25 -1 37v7c0 14 0 29 1 43h-71v81h84c35 144 130 234 257 234c95 0 149 -41 193 -97l-65 -79c-37 46 -72 71 -128 71c-64 0 -113 -46 -137 -129h185v-81h-200c-2 -13 -2 -27 -2 -42v-7
c0 -13 0 -25 1 -38h201v-81h-187c24 -88 76 -134 145 -134c53 0 89 28 127 74z" />
    <glyph glyph-name="afii61352" unicode="&#x2116;" horiz-adv-x="949" 
d="M77 0v700h110l265 -464v464h117v-700h-102l-274 476v-476h-116zM768 226c-79 0 -135 65 -135 155v5c0 90 57 155 135 155s135 -65 135 -154v-6c0 -89 -57 -155 -135 -155zM768 294c35 0 61 32 61 89s-27 90 -61 90c-35 0 -62 -32 -62 -90c0 -55 28 -89 62 -89zM644 98v75
h247v-75h-247z" />
    <glyph glyph-name="published" unicode="&#x2117;" horiz-adv-x="738" 
d="M693 355v-10c0 -199 -141 -356 -325 -356s-323 156 -323 355v10c0 199 141 357 325 357c183 0 323 -157 323 -356zM656 345v10c0 180 -120 321 -286 321c-168 0 -288 -142 -288 -322v-11c0 -179 119 -319 286 -319s288 142 288 321zM520 419v-1c0 -86 -64 -130 -143 -131
h-52v-121h-68v381h124c84 0 139 -47 139 -128zM451 417c0 45 -28 68 -71 68h-55v-136h55c43 0 71 26 71 68z" />
    <glyph glyph-name="trademark" unicode="&#x2122;" horiz-adv-x="609" 
d="M514 606l-80 -144h-4l-80 144v-217h-56v311h62l77 -138l76 138h61v-311h-56v217zM159 647v-258h-58v258h-79v53h215v-53h-78z" />
    <glyph glyph-name="partialdiff" unicode="&#x2202;" 
d="M0 0v700h500v-700h-500zM81 49h339l-170 255zM49 96l171 254l-171 254v-508zM450 96v508l-171 -254zM250 395l170 255h-339z" />
    <glyph glyph-name="product" unicode="&#x220f;" 
d="M0 0v700h500v-700h-500zM81 49h339l-170 255zM49 96l171 254l-171 254v-508zM450 96v508l-171 -254zM250 395l170 255h-339z" />
    <glyph glyph-name="summation" unicode="&#x2211;" 
d="M0 0v700h500v-700h-500zM81 49h339l-170 255zM49 96l171 254l-171 254v-508zM450 96v508l-171 -254zM250 395l170 255h-339z" />
    <glyph glyph-name="minus" unicode="&#x2212;" 
d="M0 0v700h500v-700h-500zM81 49h339l-170 255zM49 96l171 254l-171 254v-508zM450 96v508l-171 -254zM250 395l170 255h-339z" />
    <glyph glyph-name="radical" unicode="&#x221a;" horiz-adv-x="533" 
d="M82 208l-88 -7l-5 82l147 11l105 -235l240 735h91l-315 -941h-18z" />
    <glyph glyph-name="infinity" unicode="&#x221e;" 
d="M0 0v700h500v-700h-500zM81 49h339l-170 255zM49 96l171 254l-171 254v-508zM450 96v508l-171 -254zM250 395l170 255h-339z" />
    <glyph glyph-name="integral" unicode="&#x222b;" 
d="M0 0v700h500v-700h-500zM81 49h339l-170 255zM49 96l171 254l-171 254v-508zM450 96v508l-171 -254zM250 395l170 255h-339z" />
    <glyph glyph-name="approxequal" unicode="&#x2248;" horiz-adv-x="590" 
d="M121 385l-64 15c18 84 59 141 132 141c61 0 160 -49 206 -49c36 0 61 20 73 55c1 0 64 -14 65 -14c-17 -84 -59 -141 -132 -141c-61 0 -162 49 -207 49c-33 0 -60 -21 -73 -56zM121 156l-64 15c18 83 59 140 132 140c62 0 160 -48 206 -48c36 0 61 19 73 55
c1 0 64 -15 65 -15c-17 -83 -59 -140 -132 -140c-61 0 -162 48 -207 48c-33 0 -60 -20 -73 -55z" />
    <glyph glyph-name="notequal" unicode="&#x2260;" horiz-adv-x="590" 
d="M417 646l80 -9l-63 -113h80v-106h-142l-76 -134h218v-106h-279l-68 -123c-26 3 -53 7 -79 9c20 39 42 76 63 114h-78v106h140l76 134h-216v106h276z" />
    <glyph glyph-name="lessequal" unicode="&#x2264;" horiz-adv-x="590" 
d="M68 20v101h454v-101h-454zM522 167l-454 172v110l454 172v-113l-335 -114l335 -113v-114z" />
    <glyph glyph-name="greaterequal" unicode="&#x2265;" horiz-adv-x="590" 
d="M521 339l-452 -172v113l334 114l-334 113v114l452 -172v-110zM522 121v-101h-454v101h454z" />
    <glyph glyph-name="lozenge" unicode="&#x25ca;" 
d="M0 0v700h500v-700h-500zM81 49h339l-170 255zM49 96l171 254l-171 254v-508zM450 96v508l-171 -254zM250 395l170 255h-339z" />
    <glyph glyph-name="cyrbreve" unicode="&#xf6d1;" 
d="M249 588c-75 0 -131 48 -142 132l68 12c10 -40 34 -67 74 -67s65 27 74 67l68 -12c-11 -84 -66 -132 -142 -132z" />
    <glyph glyph-name="cyrBreve" unicode="&#xf6d4;" 
d="M249 589c-76 0 -133 49 -146 133l72 14c10 -40 33 -67 74 -67s64 27 74 67l72 -14c-13 -84 -69 -133 -146 -133z" />
    <glyph glyph-name="apple" unicode="&#xf8ff;" 
d="M0 0v700h500v-700h-500zM81 49h339l-170 255zM49 96l171 254l-171 254v-508zM450 96v508l-171 -254zM250 395l170 255h-339z" />
    <glyph glyph-name="ff" unicode="&#xfb00;" horiz-adv-x="662" 
d="M531 526h118v-93h-117v-433h-112v433h-59v94h59v41c0 107 54 159 150 159c34 0 59 -4 80 -11v-96c-17 6 -35 10 -55 10c-41 0 -64 -24 -64 -73v-31zM201 526h117v-93h-116v-433h-113v433h-59v94h59v41c0 107 55 159 150 159c35 0 59 -4 80 -11v-96c-17 6 -35 10 -54 10
c-42 0 -64 -24 -64 -73v-31z" />
    </font>
</defs>
</svg>
